<?xml version="1.0" encoding="UTF-8"?>
<svg height="100%" width="100%" xmlns="http://www.w3.org/2000/svg">
	<defs>
		<font horiz-adv-x="300" id="web">
			<font-face alphabetic="0" ascent="968" descent="-253" font-family="" panose-1="2 0 8 7 0 0 0 0 0 4"/>
			<missing-glyph d="M0 718H512V0H0ZM50 667V50H462V667ZM259 609Q313 609 348 573T383 478Q383 444 370 418T320 358Q283 325 277 306T271 234H225L223 251Q223 307 236 332Q251 360 282 391Q313 420 322 437T332 474Q332 510 309 534T256 559Q223 559 201 536T174 464L124 472Q131 541 167 575T259 609ZM222 184H278V117H222Z" horiz-adv-x="512"/>
			<glyph d="" horiz-adv-x="250" unicode=" "/>
			<glyph d="M90 708H266L252 237H104ZM178 179Q219 179 247 151T276 85Q276 45 247 17T178 -10Q139 -10 110 17T81 84Q81 123 109 151T178 179Z" horiz-adv-x="357" unicode="!"/>
			<glyph d="M86 708H217V437H86ZM281 708H411V437H281Z" horiz-adv-x="498" unicode="&quot;"/>
			<glyph d="M202 708H313L284 508H362L391 708H501L473 508H557V404H458L444 304H529V200H431L401 0H291L320 200H241L212 0H102L131 200H46V304H145L160 404H75V508H173ZM269 404L256 304H334L348 404Z" horiz-adv-x="603" unicode="#"/>
			<glyph d="M287 788H360V725Q420 723 476 707T568 671L526 535Q500 555 451 572T360 594V427L384 418Q446 396 486 373T553 310T580 206Q580 141 549 94T468 20T359 -15V-84L281 -83V-17Q215 -13 156 4T52 50L81 205Q127 171 181 149T282 124L284 291L274 294Q206 319 164 342T95 405T69 504Q69 600 131 655T287 723ZM286 586Q241 567 241 521Q241 500 251 486T285 460ZM359 261V132Q407 149 407 197Q407 219 395 234T359 261Z" horiz-adv-x="646" unicode="$"/>
			<glyph d="M620 740L713 695L296 -34L207 10ZM219 720Q271 720 314 695T383 626T409 531Q409 480 383 436T314 367T219 342Q167 342 123 367T54 436T29 531Q29 583 54 626T123 695T219 720ZM219 609Q187 609 164 586T141 531Q141 499 164 476T219 454Q251 454 274 476T297 531Q297 563 274 586T219 609ZM699 366Q751 366 794 340T863 272T889 177Q889 125 863 82T794 13T699 -12Q647 -12 603 13T534 82T509 177Q509 229 534 272T603 340T699 366ZM699 255Q667 255 644 232T621 177Q621 145 644 122T699 100Q731 100 754 122T777 177Q777 209 754 232T699 255Z" horiz-adv-x="911" unicode="%"/>
			<glyph d="M341 727Q398 727 447 707T526 647T557 547Q557 484 519 439T415 362L504 271L575 380H757L604 175L780 0H573L506 69Q428 -14 299 -14Q232 -14 174 9T80 80T45 197Q45 267 86 315T193 393Q120 464 120 547Q120 608 152 648T234 708T341 727ZM343 607Q314 607 294 588T275 542Q275 494 328 450Q365 465 387 488T410 542Q410 570 391 588T343 607ZM284 299Q250 285 229 263T209 204Q209 164 238 139T305 115Q369 115 409 169Z" horiz-adv-x="781" unicode="&amp;"/>
			<glyph d="M86 708H216V437H86Z" horiz-adv-x="303" unicode="'"/>
			<glyph d="M176 742L288 687Q225 600 191 498T158 288Q158 180 191 78T288 -111L176 -166Q105 -68 67 49T29 288Q29 410 67 527T176 742Z" horiz-adv-x="342" unicode="("/>
			<glyph d="M166 742Q237 644 275 527T313 288Q313 166 275 49T166 -166L54 -111Q117 -24 150 78T184 288Q184 396 150 498T54 687Z" horiz-adv-x="342" unicode=")"/>
			<glyph d="M190 708H300V578L427 618L461 518L333 478L414 371L324 308L243 417L164 312L76 375L157 479L28 522L63 622L190 578Z" horiz-adv-x="489" unicode="*"/>
			<glyph d="M268 575H398V366H611V240H399V31H269V240H56V366H268Z" horiz-adv-x="666" unicode="+"/>
			<glyph d="M151 186Q193 186 222 156T251 77Q251 -5 198 -69T71 -170L20 -124Q102 -72 128 -7Q94 0 71 26T49 87Q49 128 79 157T151 186Z" unicode=","/>
			<glyph d="M36 327H290V197H36Z" horiz-adv-x="326" unicode="-"/>
			<glyph d="M151 186Q192 186 221 157T251 88Q251 47 221 18T151 -10Q109 -10 79 18T49 87Q49 128 79 157T151 186Z" unicode="."/>
			<glyph d="M302 762L415 723L106 -52L-7 -15Z" horiz-adv-x="415" unicode="/"/>
			<glyph d="M324 727Q465 727 532 623T600 356Q600 191 532 86T324 -19Q182 -19 114 86T46 356Q46 519 114 623T324 727ZM324 585Q265 585 241 515T218 356Q218 266 241 195T324 125Q383 125 405 195T428 356Q428 445 405 515T324 585Z" horiz-adv-x="646" unicode="0"/>
			<glyph d="M297 708H451V0H283V520L143 408L64 537Z" horiz-adv-x="646" unicode="1"/>
			<glyph d="M317 727Q387 727 442 700T528 626T559 517Q559 441 522 383T400 255L271 146H600L580 0H58V140L298 357Q343 398 362 432T382 499Q382 537 357 560T293 584Q253 584 211 559T138 498L66 620Q104 666 166 696T317 727Z" horiz-adv-x="646" unicode="2"/>
			<glyph d="M325 727Q385 727 440 705T531 640T566 539Q566 426 447 373V370Q507 356 545 310T583 206Q583 132 547 81T452 6T325 -19Q163 -19 54 59L92 210Q138 173 195 147T303 122Q351 122 381 143T411 212Q411 262 369 283T267 305H241V428H271Q322 428 358 451T395 517Q395 553 371 571T311 590Q274 590 228 571T145 526L77 645Q127 685 186 706T325 727Z" horiz-adv-x="646" unicode="3"/>
			<glyph d="M313 708H514V274H632L612 138H515V0H358V138H25V279ZM356 536L188 274H359V536Z" horiz-adv-x="646" unicode="4"/>
			<glyph d="M122 708H546L526 564H271L265 452Q290 459 326 459Q398 459 456 433T548 357T582 234Q582 152 544 95T443 9T309 -19Q153 -19 54 45L83 185Q129 158 184 140T289 122Q340 122 376 150T413 226Q413 284 370 309T268 334Q237 334 189 325T105 303Z" horiz-adv-x="646" unicode="5"/>
			<glyph d="M388 719Q432 719 476 710T549 689L511 555Q452 579 386 579Q327 579 282 540T231 430H233Q255 447 292 458T369 469Q431 469 484 439T569 357T601 238Q601 159 566 101T471 12T333 -19Q250 -19 184 19T80 129T43 302Q43 425 82 519T198 666T388 719ZM323 345Q274 345 242 314T211 233Q211 186 242 153T322 121Q371 121 402 152T433 234Q433 282 402 313T323 345Z" horiz-adv-x="646" unicode="6"/>
			<glyph d="M73 708H577V574L306 0H111L398 564H53Z" horiz-adv-x="646" unicode="7"/>
			<glyph d="M323 727Q390 727 446 704T536 636T570 528Q570 471 540 430T462 373V370Q517 355 553 309T589 202Q589 130 552 80T455 6T323 -19Q251 -19 190 5T93 79T57 201Q57 263 93 308T184 370V372Q136 390 106 429T76 525Q76 588 109 634T199 703T323 727ZM323 597Q286 597 262 574T239 516Q239 481 262 456T323 432Q359 432 383 457T408 516Q408 550 383 573T323 597ZM323 304Q280 304 252 276T224 208Q224 166 251 140T323 114Q367 114 394 139T421 208Q421 249 393 276T323 304Z" horiz-adv-x="646" unicode="8"/>
			<glyph d="M321 719Q401 719 464 679T564 564T601 386Q601 199 512 90T256 -19Q209 -19 162 -10T85 11L113 145Q138 136 177 128T262 121Q318 121 362 163T418 278H416Q392 259 350 245T263 231Q207 231 156 260T74 342T43 462Q43 541 78 599T176 688T321 719ZM322 579Q273 579 242 547T211 466Q211 418 241 386T321 355Q371 355 402 386T433 467Q433 514 402 546T322 579Z" horiz-adv-x="646" unicode="9"/>
			<glyph d="M167 504Q206 504 235 476T264 410Q264 371 235 342T167 314Q127 314 97 341T68 408Q68 448 97 476T167 504ZM167 184Q206 184 235 156T264 89Q264 50 235 22T167 -6Q127 -6 97 21T68 88Q68 128 97 156T167 184Z" horiz-adv-x="332" unicode=":"/>
			<glyph d="M167 505Q206 505 235 477T264 410Q264 370 235 342T167 315Q127 315 98 342T69 409Q69 449 97 477T167 505ZM167 186Q209 186 238 156T267 77Q267 -5 214 -69T87 -170L36 -124Q73 -103 104 -73T152 -9Q115 -4 90 23T65 87Q65 128 95 157T167 186Z" horiz-adv-x="332" unicode=";"/>
			<glyph d="M587 568V432L281 301L587 174V37L79 251V354Z" horiz-adv-x="666" unicode="&lt;"/>
			<glyph d="M68 458H598V335H68ZM68 273H598V150H68Z" horiz-adv-x="666" unicode="="/>
			<glyph d="M79 568L587 354V251L79 37V174L385 301L79 432Z" horiz-adv-x="666" unicode="&gt;"/>
			<glyph d="M273 727Q336 727 388 705T472 639T504 533Q504 488 491 456T458 401T402 348Q362 315 350 294T338 235V226H182V247Q182 298 200 334T266 416Q307 456 321 476T335 522Q335 550 314 568T256 586Q218 586 180 564T108 509L30 628Q77 673 136 700T273 727ZM261 179Q301 179 329 151T358 85Q358 45 330 17T261 -10Q221 -10 192 17T163 84Q163 123 192 151T261 179Z" horiz-adv-x="546" unicode="?"/>
			<glyph d="M414 726Q511 726 593 688T724 577T774 401Q774 326 747 271T674 188T569 160Q530 160 504 177T474 224H470Q455 198 424 179T351 160Q284 160 245 207T207 329Q207 386 231 438T299 522T399 554Q436 554 461 538T494 500H495L502 534H610L579 377Q566 318 566 294Q566 258 595 258Q627 258 649 294T672 397Q672 511 601 573T413 635Q333 635 270 598T173 497T139 353Q139 269 175 206T277 110T426 76Q562 76 656 162L719 92Q662 37 585 9T415 -18Q303 -18 215 29T78 161T29 353Q29 457 80 542T220 677T414 726ZM409 457Q373 457 349 416T326 329Q326 300 339 279T381 259Q421 259 443 297T465 379Q465 457 409 457Z" horiz-adv-x="800" unicode="@"/>
			<glyph d="M283 708H449L743 0H553L488 166H234L172 0H-14ZM363 519L283 303H441Z" horiz-adv-x="729" unicode="A"/>
			<glyph d="M73 708H335Q434 708 505 666T576 526Q576 469 545 430T460 373V371Q524 360 564 316T605 206Q605 99 527 49T335 0H73ZM238 572V426H310Q358 426 384 446T411 503Q411 539 384 555T302 572ZM238 300V138H314Q364 138 399 156T434 222Q434 264 402 282T313 300Z" horiz-adv-x="645" unicode="B"/>
			<glyph d="M424 727Q494 727 557 708T664 660L621 503Q582 532 532 552T430 572Q371 572 324 544T252 466T226 355Q226 291 252 242T325 165T436 138Q547 138 643 214L669 61Q624 26 561 3T421 -19Q313 -19 226 28T89 161T40 355Q40 466 90 550T228 681T424 727Z" horiz-adv-x="696" unicode="C"/>
			<glyph d="M73 708H329Q438 708 529 674T677 561T734 356Q734 238 677 157T530 38T337 0H73ZM240 562V148H321Q424 148 490 197T556 356Q556 466 491 514T325 562Z" horiz-adv-x="774" unicode="D"/>
			<glyph d="M73 708H529L509 563H238V430H502L482 293H238V146H547L527 0H73Z" horiz-adv-x="577" unicode="E"/>
			<glyph d="M73 708H519L499 562H242V416H496L476 275H242V0H73Z" horiz-adv-x="546" unicode="F"/>
			<glyph d="M424 727Q502 727 573 704T696 649L632 510Q530 576 430 576Q371 576 323 547T249 468T222 355Q222 255 279 193T438 132Q501 132 545 151V280H410L430 418H702V43Q648 15 578 -1T429 -18Q317 -18 228 29T90 160T40 355Q40 466 90 550T228 681T424 727Z" horiz-adv-x="769" unicode="G"/>
			<glyph d="M73 708H244V440H550V708H721V0H550V296H244V0H73Z" horiz-adv-x="794" unicode="H"/>
			<glyph d="M73 708H245V0H73Z" horiz-adv-x="318" unicode="I"/>
			<glyph d="M173 708H345V233Q345 121 284 51T104 -19Q76 -19 49 -16L20 146Q50 136 74 136Q124 136 148 164T173 241Z" horiz-adv-x="414" unicode="J"/>
			<glyph d="M73 708H241V400L497 708H711L413 377L729 0H506L241 336V0H73Z" horiz-adv-x="711" unicode="K"/>
			<glyph d="M73 708H245V149H519L499 0H73Z" horiz-adv-x="526" unicode="L"/>
			<glyph d="M73 708H316L479 254L635 708H882V0H715L719 501L532 0H412L230 501L234 0H73Z" horiz-adv-x="955" unicode="M"/>
			<glyph d="M73 708H268L552 246H555L551 708H717V0H523L238 463H235L239 0H73Z" horiz-adv-x="790" unicode="N"/>
			<glyph d="M425 727Q536 727 623 681T761 552T811 357Q811 247 761 161T623 28T425 -19Q315 -19 227 28T90 161T40 357Q40 468 89 552T227 681T425 727ZM425 573Q366 573 320 545T248 468T223 357Q223 294 248 243T320 165T425 137Q484 137 530 165T602 243T628 357Q628 418 602 467T530 545T425 573Z" horiz-adv-x="851" unicode="O"/>
			<glyph d="M73 708H313Q439 708 514 654T590 480Q590 360 510 303T309 247H244V0H73ZM244 570V383H296Q351 383 385 405T419 479Q419 531 386 550T299 570Z" horiz-adv-x="620" unicode="P"/>
			<glyph d="M420 727Q529 727 616 681T752 553T801 366Q801 291 770 230T696 136V133L845 136L825 0H414Q301 0 215 42T83 167T36 363Q36 469 86 551T223 680T420 727ZM425 573Q366 573 320 545T248 468T223 357Q223 294 248 243T320 165T425 137Q483 137 529 165T602 244T628 357Q628 418 602 467T530 545T425 573Z" horiz-adv-x="851" unicode="Q"/>
			<glyph d="M73 708H323Q440 708 517 655T594 484Q594 419 555 361T457 283L652 0H452L289 261H241V0H73ZM240 570V385H301Q425 385 425 481Q425 526 390 548T311 570Z" horiz-adv-x="663" unicode="R"/>
			<glyph d="M317 726Q380 726 439 710T539 671L487 535Q457 555 409 570T323 585Q282 585 252 568T222 514Q222 482 247 466T331 431Q397 410 441 388T518 324T551 218Q551 141 513 87T416 8T293 -18Q223 -18 158 0T43 50L72 205Q122 168 177 145T280 123Q324 123 351 140T378 197Q378 223 361 240T315 270T231 301Q148 328 99 372T50 504Q50 578 89 628T189 702T317 726Z" horiz-adv-x="591" unicode="S"/>
			<glyph d="M15 708H586L566 562H376V0H205V562H-5Z" horiz-adv-x="581" unicode="T"/>
			<glyph d="M66 708H236V281Q236 218 269 176T369 135Q437 135 469 176T502 281V708H673V267Q673 183 635 118T528 17T368 -19Q276 -19 208 17T103 117T66 267Z" horiz-adv-x="738" unicode="U"/>
			<glyph d="M-15 708H177L341 206H345L508 708H697L424 0H253Z" horiz-adv-x="682" unicode="V"/>
			<glyph d="M0 708H184L296 237H299L425 708H603L730 237H733L847 708H1025L823 0H654L514 479H511L371 0H201Z" horiz-adv-x="1025" unicode="W"/>
			<glyph d="M12 708H218L350 488L480 708H679L455 374L711 0H500L345 250L196 0H-8L240 374Z" horiz-adv-x="703" unicode="X"/>
			<glyph d="M-20 708H187L338 446L489 708H689L417 300V0H246V300Z" horiz-adv-x="669" unicode="Y"/>
			<glyph d="M57 708H580V571L245 148H617L597 0H39V148L366 563H57Z" horiz-adv-x="635" unicode="Z"/>
			<glyph d="M53 732H269V630H180V-54H269V-156H53Z" horiz-adv-x="342" unicode="["/>
			<glyph d="M114 762L422 -15L309 -52L1 723Z" horiz-adv-x="415" unicode="\"/>
			<glyph d="M73 732H289V-156H73V-54H162V630H73Z" horiz-adv-x="342" unicode="]"/>
			<glyph d="M286 708H404L616 343H468L344 556L221 343H73Z" horiz-adv-x="690" unicode="^"/>
			<glyph d="M0 -75H500V-164H0Z" horiz-adv-x="500" unicode="_"/>
			<glyph d="M-39 716H127L231 572H107Z" unicode="`"/>
			<glyph d="M278 514Q488 514 488 291V93Q488 32 496 0H347Q341 25 338 53H335Q317 23 274 5T185 -12Q124 -12 78 26T33 144Q33 310 321 312H333V320Q333 355 308 373T243 392Q210 392 168 377T97 344L60 459Q110 488 162 501T278 514ZM317 221Q260 221 222 205T184 149Q184 122 198 110T235 98Q280 98 309 126T338 200V221Z" horiz-adv-x="546" unicode="a"/>
			<glyph d="M230 776V445H232Q256 473 295 492T384 512Q454 512 507 476T590 381T619 251Q619 180 590 119T508 22T382 -14Q332 -14 287 7T219 65H217Q216 39 207 0H60Q66 80 66 119V756ZM343 378Q308 378 280 359T238 311T223 250Q223 217 238 187T280 140T343 122Q398 122 429 160T461 251Q461 303 429 340T343 378Z" horiz-adv-x="659" unicode="b"/>
			<glyph d="M317 514Q363 514 412 499T489 463L432 342Q380 377 320 377Q269 377 237 339T205 249Q205 195 240 158T335 122Q374 122 405 133T468 169L489 41Q460 16 411 0T304 -16Q232 -16 171 16T75 109T39 249Q39 328 76 388T176 481T317 514Z" horiz-adv-x="503" unicode="c"/>
			<glyph d="M592 776V120Q592 80 596 0H445Q441 44 441 65H439Q415 28 370 7T276 -14Q204 -14 150 22T67 119T39 251Q39 321 68 381T150 476T274 512Q324 512 363 492T426 445H428V756ZM315 378Q260 378 228 340T197 251Q197 198 228 160T315 122Q351 122 378 140T420 187T435 250Q435 282 420 311T377 359T315 378Z" horiz-adv-x="658" unicode="d"/>
			<glyph d="M308 514Q382 514 438 481T526 387T558 243Q558 216 557 204H196Q200 163 241 136T338 110Q422 110 503 152L525 34Q439 -16 313 -16Q237 -16 174 15T75 106T39 247Q39 327 74 387T171 481T308 514ZM309 401Q263 401 231 373T196 306H407Q407 347 381 374T309 401Z" horiz-adv-x="596" unicode="e"/>
			<glyph d="M319 775Q372 775 418 765L407 635Q369 642 342 642Q269 642 269 548V498H400L380 375H269V0H105V375H4L24 498H105V546Q105 649 154 712T319 775Z" horiz-adv-x="388" unicode="f"/>
			<glyph d="M276 512Q325 512 367 492T435 434H437Q439 462 444 498H596Q592 458 592 389V47Q592 -95 516 -167T311 -240Q249 -240 182 -222T72 -178L95 -40Q139 -70 192 -89T299 -108Q363 -108 397 -70T431 31V61H428Q404 30 365 12T277 -5Q204 -5 150 29T67 122T39 251Q39 321 67 380T150 476T276 512ZM315 378Q261 378 229 342T198 252Q198 200 230 162T315 125Q370 125 403 162T436 252Q436 305 402 341T315 378Z" horiz-adv-x="658" unicode="g"/>
			<glyph d="M230 776V435H232Q250 467 288 489T375 512Q469 512 513 452T557 308V0H392V270Q392 318 376 346T319 375Q278 375 254 345T230 269V0H66V756Z" horiz-adv-x="617" unicode="h"/>
			<glyph d="M148 747Q187 747 214 720T242 657Q242 619 214 593T148 567Q109 567 81 593T54 657Q54 693 81 720T148 747ZM66 498H230V0H66Z" horiz-adv-x="296" unicode="i"/>
			<glyph d="M151 747Q190 747 217 720T245 657Q245 619 217 593T151 567Q112 567 84 593T57 657Q57 693 84 720T151 747ZM69 498H233V7Q233 -106 184 -172T10 -240L-31 -100Q18 -100 43 -71T69 7Z" horiz-adv-x="299" unicode="j"/>
			<glyph d="M230 776V282H233L392 498H584L403 273L590 0H403L233 244H230V0H65V756Z" horiz-adv-x="595" unicode="k"/>
			<glyph d="M232 776V235Q232 186 246 157T296 102L199 -20Q136 14 101 69T66 215V756Z" horiz-adv-x="304" unicode="l"/>
			<glyph d="M374 512Q480 512 524 427Q578 512 683 512Q747 512 787 482T846 405T864 308V0H700V272Q700 321 684 349T629 377Q589 377 567 345T546 269V0H382V284Q382 328 364 352T311 377Q273 377 251 346T229 270V0H64V402Q64 445 59 498H217Q223 470 223 429H225Q244 464 283 488T374 512Z" horiz-adv-x="924" unicode="m"/>
			<glyph d="M374 512Q467 512 511 452T556 308V0H391V272Q391 377 317 377Q275 377 252 346T229 270V0H64V404Q64 446 59 498H217Q223 464 223 429H225Q243 464 283 488T374 512Z" horiz-adv-x="616" unicode="n"/>
			<glyph d="M315 514Q391 514 454 482T555 390T592 251Q592 172 554 111T454 17T315 -16Q240 -16 176 17T76 111T39 251Q39 330 76 390T176 482T315 514ZM315 378Q260 378 229 340T198 251Q198 199 229 160T316 122Q371 122 402 160T434 251Q434 302 402 340T315 378Z" horiz-adv-x="632" unicode="o"/>
			<glyph d="M382 512Q452 512 506 476T589 381T618 251Q618 180 589 119T507 22T381 -14Q335 -14 294 4T230 55H228V-240H64V397Q64 430 62 498H218Q220 458 220 437H223Q247 470 288 491T382 512ZM342 378Q307 378 279 359T237 311T222 250Q222 217 237 187T279 140T342 122Q397 122 428 160T459 251Q459 303 428 340T342 378Z" horiz-adv-x="657" unicode="p"/>
			<glyph d="M274 512Q326 512 368 491T434 437H437Q437 468 440 498H594Q592 446 592 419V11Q592 -38 606 -66T656 -122L559 -244Q429 -174 429 2V55H427Q403 23 362 4T276 -14Q203 -14 149 22T67 119T39 251Q39 321 68 381T150 476T274 512ZM315 378Q260 378 228 340T197 251Q197 198 228 160T315 122Q351 122 378 140T420 187T435 250Q435 282 420 311T377 359T315 378Z" horiz-adv-x="657" unicode="q"/>
			<glyph d="M339 512Q368 512 394 505L372 364Q352 369 330 369Q277 369 252 333T228 256V0H64V372Q64 452 58 498H215Q222 466 222 426H224Q240 465 270 488T339 512Z" horiz-adv-x="396" unicode="r"/>
			<glyph d="M240 514Q298 514 347 498T429 459L370 353Q345 371 312 383T253 396Q227 396 209 386T191 356Q191 336 210 327T282 306Q441 270 441 154Q441 67 378 25T229 -16Q172 -16 117 -2T31 32L52 155Q133 102 208 102Q284 102 284 145Q284 167 262 178T185 202Q40 236 40 347Q40 403 70 440T146 496T240 514Z" horiz-adv-x="472" unicode="s"/>
			<glyph d="M242 629V498H375L355 375H242V185Q242 149 255 132T300 115Q330 115 365 128L383 16Q318 -12 242 -12Q160 -12 121 35T82 165V375H2L22 498H81V599Z" horiz-adv-x="390" unicode="t"/>
			<glyph d="M59 498H224V228Q224 180 240 151T298 122Q339 122 362 153T386 229V498H550V92Q550 52 555 0H397Q392 38 392 69Q372 33 329 9T240 -14Q147 -14 103 45T59 190Z" horiz-adv-x="614" unicode="u"/>
			<glyph d="M-1 498H180L285 175L393 498H568L372 0H195Z" horiz-adv-x="567" unicode="v"/>
			<glyph d="M0 498H177L263 183H266L355 498H520L612 183H614L701 498H871L698 0H533L435 310H433L337 0H172Z" horiz-adv-x="871" unicode="w"/>
			<glyph d="M16 498H207L300 365L394 498H579L400 261L597 0H404L297 153L187 0H-3L196 261Z" horiz-adv-x="594" unicode="x"/>
			<glyph d="M-1 498H181L299 178L394 498H568L371 -24Q332 -127 274 -176T123 -240L69 -105Q122 -92 154 -69T207 -10L214 8Z" horiz-adv-x="567" unicode="y"/>
			<glyph d="M53 498H468V375L227 127H488L468 0H34V128L268 372H33Z" horiz-adv-x="512" unicode="z"/>
			<glyph d="M210 732H292V627H245Q199 627 199 567V400Q199 348 168 320T106 289V287Q139 284 169 257T199 172V9Q199 -51 245 -51H292V-156H210Q148 -156 110 -115T73 -8V159Q73 233 6 233V343Q73 343 73 413V584Q73 651 110 691T210 732Z" horiz-adv-x="342" unicode="{"/>
			<glyph d="M55 750H186V-250H56Z" horiz-adv-x="241" unicode="|"/>
			<glyph d="M50 732H132Q194 732 231 691T269 584V413Q269 343 336 343V233Q269 233 269 159V-8Q269 -75 231 -115T132 -156H50V-51H97Q143 -51 143 9V172Q143 230 173 257T236 287V289Q204 293 173 320T143 400V567Q143 627 97 627H50Z" horiz-adv-x="342" unicode="}"/>
			<glyph d="M222 394Q280 394 342 357Q377 337 400 327T441 317Q466 317 485 335T528 388L593 285Q566 239 534 212T454 185Q424 185 399 194T342 223T286 252T235 261Q207 261 187 243T151 191L85 295Q136 394 222 394Z" horiz-adv-x="666" unicode="~"/>
			<glyph d="" horiz-adv-x="250" unicode=" "/>
			<glyph d="M179 518Q218 518 247 490T276 424Q276 385 247 357T179 329Q138 329 109 356T81 423Q81 463 109 490T179 518ZM105 271H253L267 -200H91Z" horiz-adv-x="357" unicode="¡"/>
			<glyph d="M334 576H410V512Q453 508 493 494T559 463L502 342Q457 369 410 375V122Q447 123 477 134T538 169L559 41Q534 21 495 6T410 -14V-79H334V-15Q266 -8 210 25T121 116T89 249Q89 321 120 377T208 468T334 511ZM334 370Q296 357 275 324T255 249Q255 210 275 179T334 134Z" horiz-adv-x="646" unicode="¢"/>
			<glyph d="M427 727Q476 727 528 709T615 668L552 544Q530 561 499 573T437 586Q381 586 356 550T332 467V416H508L488 301H332V247Q332 172 275 141H601L581 0H72V141H84Q121 141 144 166T167 233V301H52L72 416H167V477Q167 536 194 593T280 689T427 727Z" horiz-adv-x="646" unicode="£"/>
			<glyph d="M231 633L326 539Q394 580 476 580Q559 580 626 541L718 633L803 549L713 459Q755 394 755 309Q755 219 710 154L803 61L719 -23L622 73Q558 34 476 34Q398 34 329 75L230 -23L146 61L242 157Q200 219 200 309Q200 392 239 456L146 549ZM476 441Q421 441 385 402T350 309Q350 252 385 213T476 175Q532 175 567 213T603 309Q603 363 567 402T476 441Z" horiz-adv-x="950" unicode="¤"/>
			<glyph d="M12 708H197L329 448L458 708H637L458 416H592L572 313H403V248H592L572 145H403V0H245V145H57L77 248H245V313H57L77 416H194Z" horiz-adv-x="646" unicode="¥"/>
			<glyph d="M55 675H186V313H55ZM55 187H186V-175H55Z" horiz-adv-x="241" unicode="¦"/>
			<glyph d="M325 726Q399 726 459 699T553 623L437 535Q419 562 390 578T332 595Q304 595 282 582T261 546Q261 521 287 503T378 464Q467 431 514 390T562 279Q562 240 541 206T487 154Q537 119 537 44Q537 -21 501 -64T409 -127T293 -148Q218 -148 148 -116T40 -27L162 60Q183 24 221 5T296 -13Q324 -13 346 0T369 38Q369 59 356 73T318 98T238 128Q180 148 143 168T84 219T62 298Q62 346 86 380T148 436Q95 475 95 549Q95 607 129 647T217 706T325 726ZM250 374Q209 357 209 321Q209 294 228 279T289 249L383 212Q398 219 406 233T414 263Q414 290 394 306T336 339Z" horiz-adv-x="607" unicode="§"/>
			<glyph d="M41 739Q76 739 100 715T125 658Q125 624 100 600T41 576Q7 576 -17 600T-42 658Q-42 691 -17 715T41 739ZM259 739Q293 739 317 715T342 658Q342 624 317 600T259 576Q224 576 200 600T176 658Q176 690 200 714T259 739Z" unicode="¨"/>
			<glyph d="M401 730Q504 730 591 679T729 542T780 353Q780 250 729 164T591 28T401 -22Q298 -22 210 28T71 164T20 353Q20 456 71 542T210 679T401 730ZM401 674Q314 674 240 631T123 514T80 353Q80 266 123 193T239 77T399 34Q486 34 559 77T676 193T720 353Q720 440 677 514T561 631T401 674ZM419 581Q461 581 505 566T575 529L544 429Q524 449 488 464T418 479Q365 479 334 445T304 353Q304 296 335 260T424 225Q459 225 493 236T548 264L564 165Q539 145 501 133T419 122Q353 122 299 149T213 229T182 352Q182 421 214 473T300 553T419 581Z" horiz-adv-x="800" unicode="©"/>
			<glyph d="M190 723Q329 723 329 595V483Q329 465 333 431H240Q239 436 236 464H235Q224 447 199 435T145 424Q106 424 75 446T45 512Q45 570 97 590T231 610V614Q231 631 217 640T181 649Q156 649 133 641T93 621L69 690Q92 706 124 714T190 723ZM222 553Q142 553 142 518Q142 505 152 498T176 491Q202 491 218 505T234 541V553Z" horiz-adv-x="384" unicode="ª"/>
			<glyph d="M186 486L283 423L168 254L284 85L186 22L25 254ZM412 486L509 423L394 254L509 85L412 22L251 254Z" horiz-adv-x="543" unicode="«"/>
			<glyph d="M51 451H606V145H476V328H51Z" horiz-adv-x="666" unicode="¬"/>
			<glyph d="M36 327H290V197H36Z" horiz-adv-x="326" unicode="­"/>
			<glyph d="M301 719Q363 719 415 688T497 606T528 492Q528 430 497 378T415 297T301 267Q239 267 186 297T103 378T72 492Q72 554 103 606T186 688T301 719ZM301 684Q248 684 204 658T134 588T108 492Q108 440 134 396T204 326T301 300Q353 300 397 326T466 396T492 492Q492 544 466 588T397 658T301 684ZM191 631H305Q355 631 390 611T426 545Q426 519 413 499T378 471L439 365H339L295 459H279V365H191ZM279 562V521H305Q317 521 325 527T333 544Q333 552 324 557T305 562Z" horiz-adv-x="600" unicode="®"/>
			<glyph d="M-18 687H318V601H-18Z" unicode="¯"/>
			<glyph d="M208 725Q254 725 292 703T353 642T376 558Q376 512 353 473T292 412T208 390Q162 390 123 412T62 473T40 558Q40 604 62 642T123 703T208 725ZM208 646Q171 646 145 620T120 558Q120 521 145 495T208 470Q245 470 270 495T296 558Q296 594 270 620T208 646Z" horiz-adv-x="416" unicode="°"/>
			<glyph d="M274 590H404V458H616V331H404V199H274V331H61V458H274ZM61 158H616V31H61Z" horiz-adv-x="666" unicode="±"/>
			<glyph d="M197 890Q262 890 305 857T349 763Q349 719 328 686T273 622L186 545H369L349 445H30V527L200 691Q229 720 229 749Q229 767 214 778T175 789Q150 789 122 774T74 738L31 824Q99 890 197 890Z" horiz-adv-x="395" unicode="²"/>
			<glyph d="M194 890Q258 890 302 859T347 769Q347 736 331 711T290 673Q322 662 339 635T357 573Q357 528 332 497T270 451T191 436Q101 436 30 475L59 571Q80 556 114 544T180 533Q242 533 242 579Q242 626 164 626H131V710H167Q196 710 214 721T232 757Q232 774 218 784T180 795Q133 795 85 758L44 842Q106 890 194 890Z" horiz-adv-x="398" unicode="³"/>
			<glyph d="M173 716H339L193 572H69Z" unicode="´"/>
			<glyph d="M66 498H247V243Q247 185 265 158T328 131Q381 131 402 175T424 301V498H606V0H473L447 74H439Q423 33 391 11T325 -10Q292 -10 274 0T243 31H241Q247 -25 247 -84V-240H66Z" horiz-adv-x="672" unicode="µ"/>
			<glyph d="M268 708H555V-129H439V608H354V-129H238V335Q140 337 82 387T24 518Q24 620 90 664T268 708Z" horiz-adv-x="618" unicode="¶"/>
			<glyph d="M151 389Q192 389 221 360T251 291Q251 250 221 221T151 193Q109 193 79 221T49 290Q49 331 79 360T151 389Z" unicode="·"/>
			<glyph d="M127 0H209L162 -60Q169 -59 180 -59Q224 -59 253 -77T283 -142Q283 -194 238 -217T136 -240Q105 -240 72 -233T17 -215L44 -155Q84 -174 128 -174Q148 -174 163 -166T178 -141Q178 -125 164 -118T131 -112Q109 -112 91 -118L60 -89Z" unicode="¸"/>
			<glyph d="M192 881H298V445H181V751L94 683L54 779Z" horiz-adv-x="420" unicode="¹"/>
			<glyph d="M192 724Q259 724 303 682T348 575Q348 531 327 496T271 443T192 424Q149 424 113 443T57 496T37 575Q37 619 57 653T113 705T192 724ZM192 638Q165 638 149 619T133 575Q133 548 149 529T192 511Q220 511 236 529T253 575Q253 601 236 619T192 638Z" horiz-adv-x="384" unicode="º"/>
			<glyph d="M132 486L293 253L132 22L35 85L150 253L34 423ZM357 486L519 253L357 22L260 85L375 253L260 423Z" horiz-adv-x="543" unicode="»"/>
			<glyph d="M614 740L701 699L313 -30L226 9ZM191 708H297V272H180V578L93 510L53 606ZM693 436H824V177H882V83H824V0H718V83H518V176ZM717 311L629 177H718V311Z" horiz-adv-x="940" unicode="¼"/>
			<glyph d="M614 740L701 699L313 -30L226 9ZM191 708H297V272H180V578L93 510L53 606ZM717 445Q782 445 825 412T869 318Q869 274 848 241T793 177L706 100H889L869 0H550V82L720 246Q749 275 749 304Q749 322 734 333T695 344Q670 344 642 329T594 293L551 379Q619 445 717 445Z" horiz-adv-x="940" unicode="½"/>
			<glyph d="M614 740L701 699L313 -30L226 9ZM194 721Q258 721 302 690T347 600Q347 567 331 542T290 504Q322 493 339 466T357 404Q357 359 332 328T270 282T191 267Q101 267 30 306L59 402Q80 387 114 375T180 364Q242 364 242 410Q242 457 164 457H131V541H167Q196 541 214 552T232 588Q232 605 218 615T180 626Q133 626 85 589L44 673Q106 721 194 721ZM693 436H824V177H882V83H824V0H718V83H518V176ZM717 311L629 177H718V311Z" horiz-adv-x="940" unicode="¾"/>
			<glyph d="M283 518Q323 518 352 490T381 424Q381 385 352 357T283 329Q243 329 214 356T186 423Q186 463 214 490T283 518ZM206 282H362V261Q362 210 344 174T278 92Q237 52 223 32T209 -14Q209 -42 230 -60T288 -78Q326 -78 364 -56T436 -1L514 -120Q467 -165 408 -192T271 -219Q208 -219 155 -197T71 -131T40 -25Q40 20 52 51T85 106T142 160Q182 193 194 214T206 273Z" horiz-adv-x="546" unicode="¿"/>
			<glyph d="M283 708H449L743 0H553L488 166H234L172 0H-14ZM363 519L283 303H441ZM169 908H335L439 764H315Z" horiz-adv-x="729" unicode="À"/>
			<glyph d="M283 708H449L743 0H553L488 166H234L172 0H-14ZM363 519L283 303H441ZM398 908H564L418 764H294Z" horiz-adv-x="729" unicode="Á"/>
			<glyph d="M283 708H449L743 0H553L488 166H234L172 0H-14ZM363 519L283 303H441ZM294 908H442L564 764H434L366 845L298 764H170Z" horiz-adv-x="729" unicode="Â"/>
			<glyph d="M283 708H449L743 0H553L488 166H234L172 0H-14ZM363 519L283 303H441ZM480 900H551Q544 842 516 805T438 768Q403 768 357 789Q318 809 294 809Q263 809 252 769H180Q188 827 215 863T293 899Q330 899 373 879T438 859Q456 859 465 869T480 900Z" horiz-adv-x="729" unicode="Ã"/>
			<glyph d="M283 708H449L743 0H553L488 166H234L172 0H-14ZM363 519L283 303H441ZM257 931Q292 931 316 907T341 850Q341 816 316 792T257 768Q223 768 198 792T174 850Q174 883 198 907T257 931ZM475 931Q509 931 533 907T558 850Q558 816 533 792T475 768Q440 768 416 792T392 850Q392 883 416 907T475 931Z" horiz-adv-x="729" unicode="Ä"/>
			<glyph d="M283 708H449L743 0H553L488 166H234L172 0H-14ZM363 519L283 303H441ZM367 963Q412 963 444 932T476 856Q476 810 444 779T367 749Q322 749 290 779T258 855Q258 901 289 932T367 963ZM367 914Q342 914 325 897T308 855Q308 831 325 814T367 798Q392 798 409 814T426 856Q426 881 409 897T367 914Z" horiz-adv-x="729" unicode="Å"/>
			<glyph d="M410 708H985L965 563H677V430H958L938 293H677V146H1003L983 0H514V153H283L195 0H-4ZM504 563L351 291H514V563Z" horiz-adv-x="1033" unicode="Æ"/>
			<glyph d="M424 727Q494 727 557 708T664 660L621 503Q582 532 532 552T430 572Q371 572 324 544T252 466T226 355Q226 291 252 242T325 165T436 138Q547 138 643 214L669 61Q626 27 566 5T432 -19L400 -60Q407 -59 418 -59Q462 -59 491 -77T521 -142Q521 -194 476 -217T374 -240Q343 -240 310 -233T255 -215L282 -155Q322 -174 366 -174Q386 -174 401 -166T416 -141Q416 -125 402 -118T369 -112Q347 -112 329 -118L298 -89L354 -14Q263 0 191 50T80 178T40 355Q40 466 90 550T228 681T424 727Z" horiz-adv-x="696" unicode="Ç"/>
			<glyph d="M73 708H529L509 563H238V430H502L482 293H238V146H547L527 0H73ZM136 908H302L406 764H282Z" horiz-adv-x="577" unicode="È"/>
			<glyph d="M73 708H529L509 563H238V430H502L482 293H238V146H547L527 0H73ZM337 908H503L357 764H233Z" horiz-adv-x="577" unicode="É"/>
			<glyph d="M73 708H529L509 563H238V430H502L482 293H238V146H547L527 0H73ZM242 908H390L512 764H382L314 845L246 764H118Z" horiz-adv-x="577" unicode="Ê"/>
			<glyph d="M73 708H529L509 563H238V430H502L482 293H238V146H547L527 0H73ZM206 931Q241 931 265 907T290 850Q290 816 265 792T206 768Q172 768 147 792T123 850Q123 883 147 907T206 931ZM424 931Q458 931 482 907T507 850Q507 816 482 792T424 768Q389 768 365 792T341 850Q341 883 365 907T424 931Z" horiz-adv-x="577" unicode="Ë"/>
			<glyph d="M73 708H245V0H73ZM-25 908H141L245 764H121Z" horiz-adv-x="318" unicode="Ì"/>
			<glyph d="M73 708H245V0H73ZM177 908H343L197 764H73Z" horiz-adv-x="318" unicode="Í"/>
			<glyph d="M73 708H245V0H73ZM85 908H233L355 764H225L157 845L89 764H-39Z" horiz-adv-x="318" unicode="Î"/>
			<glyph d="M73 708H245V0H73ZM50 931Q85 931 109 907T134 850Q134 816 109 792T50 768Q16 768 -8 792T-33 850Q-33 883 -8 907T50 931ZM268 931Q302 931 326 907T351 850Q351 816 326 792T268 768Q233 768 209 792T185 850Q185 883 209 907T268 931Z" horiz-adv-x="318" unicode="Ï"/>
			<glyph d="M74 708H347Q453 708 540 671T679 555T732 356Q732 240 676 159T532 39T346 0H74V309H13V416H74ZM241 559V416H422V309H241V150H315Q426 150 491 200T557 356Q557 457 496 508T331 559Z" horiz-adv-x="774" unicode="Ð"/>
			<glyph d="M73 708H268L552 246H555L551 708H717V0H523L238 463H235L239 0H73ZM513 900H584Q577 842 549 805T471 768Q436 768 390 789Q351 809 327 809Q296 809 285 769H213Q221 827 248 863T326 899Q363 899 406 879T471 859Q489 859 498 869T513 900Z" horiz-adv-x="790" unicode="Ñ"/>
			<glyph d="M425 727Q536 727 623 681T761 552T811 357Q811 247 761 161T623 28T425 -19Q315 -19 227 28T90 161T40 357Q40 468 89 552T227 681T425 727ZM425 573Q366 573 320 545T248 468T223 357Q223 294 248 243T320 165T425 137Q484 137 530 165T602 243T628 357Q628 418 602 467T530 545T425 573ZM257 908H423L527 764H403Z" horiz-adv-x="851" unicode="Ò"/>
			<glyph d="M425 727Q536 727 623 681T761 552T811 357Q811 247 761 161T623 28T425 -19Q315 -19 227 28T90 161T40 357Q40 468 89 552T227 681T425 727ZM425 573Q366 573 320 545T248 468T223 357Q223 294 248 243T320 165T425 137Q484 137 530 165T602 243T628 357Q628 418 602 467T530 545T425 573ZM439 908H605L459 764H335Z" horiz-adv-x="851" unicode="Ó"/>
			<glyph d="M425 727Q536 727 623 681T761 552T811 357Q811 247 761 161T623 28T425 -19Q315 -19 227 28T90 161T40 357Q40 468 89 552T227 681T425 727ZM425 573Q366 573 320 545T248 468T223 357Q223 294 248 243T320 165T425 137Q484 137 530 165T602 243T628 357Q628 418 602 467T530 545T425 573ZM353 908H501L623 764H493L425 845L357 764H229Z" horiz-adv-x="851" unicode="Ô"/>
			<glyph d="M425 727Q536 727 623 681T761 552T811 357Q811 247 761 161T623 28T425 -19Q315 -19 227 28T90 161T40 357Q40 468 89 552T227 681T425 727ZM425 573Q366 573 320 545T248 468T223 357Q223 294 248 243T320 165T425 137Q484 137 530 165T602 243T628 357Q628 418 602 467T530 545T425 573ZM541 900H612Q605 842 577 805T499 768Q464 768 418 789Q379 809 355 809Q324 809 313 769H241Q249 827 276 863T354 899Q391 899 434 879T499 859Q517 859 526 869T541 900Z" horiz-adv-x="851" unicode="Õ"/>
			<glyph d="M425 727Q536 727 623 681T761 552T811 357Q811 247 761 161T623 28T425 -19Q315 -19 227 28T90 161T40 357Q40 468 89 552T227 681T425 727ZM425 573Q366 573 320 545T248 468T223 357Q223 294 248 243T320 165T425 137Q484 137 530 165T602 243T628 357Q628 418 602 467T530 545T425 573ZM317 931Q352 931 376 907T401 850Q401 816 376 792T317 768Q283 768 258 792T234 850Q234 883 258 907T317 931ZM535 931Q569 931 593 907T618 850Q618 816 593 792T535 768Q500 768 476 792T452 850Q452 883 476 907T535 931Z" horiz-adv-x="851" unicode="Ö"/>
			<glyph d="M157 566L334 393L508 565L599 478L425 305L604 130L510 37L333 210L157 37L64 126L241 301L63 475Z" horiz-adv-x="666" unicode="×"/>
			<glyph d="M731 765L798 706L712 613Q811 512 811 356Q811 246 761 161T622 29T424 -18Q284 -18 195 51L106 -44L39 13L128 110Q85 156 62 219T40 356Q40 467 89 551T227 680T425 726Q551 726 644 668ZM425 579Q361 579 313 549T239 468T214 355Q214 282 245 235L535 550Q491 579 425 579ZM597 486L305 168Q351 131 424 131Q487 131 535 160T609 241T635 356Q635 436 597 486Z" horiz-adv-x="851" unicode="Ø"/>
			<glyph d="M66 708H236V281Q236 218 269 176T369 135Q437 135 469 176T502 281V708H673V267Q673 183 635 118T528 17T368 -19Q276 -19 208 17T103 117T66 267ZM200 908H366L470 764H346Z" horiz-adv-x="738" unicode="Ù"/>
			<glyph d="M66 708H236V281Q236 218 269 176T369 135Q437 135 469 176T502 281V708H673V267Q673 183 635 118T528 17T368 -19Q276 -19 208 17T103 117T66 267ZM377 908H543L397 764H273Z" horiz-adv-x="738" unicode="Ú"/>
			<glyph d="M66 708H236V281Q236 218 269 176T369 135Q437 135 469 176T502 281V708H673V267Q673 183 635 118T528 17T368 -19Q276 -19 208 17T103 117T66 267ZM297 908H445L567 764H437L369 845L301 764H173Z" horiz-adv-x="738" unicode="Û"/>
			<glyph d="M66 708H236V281Q236 218 269 176T369 135Q437 135 469 176T502 281V708H673V267Q673 183 635 118T528 17T368 -19Q276 -19 208 17T103 117T66 267ZM261 931Q296 931 320 907T345 850Q345 816 320 792T261 768Q227 768 202 792T178 850Q178 883 202 907T261 931ZM479 931Q513 931 537 907T562 850Q562 816 537 792T479 768Q444 768 420 792T396 850Q396 883 420 907T479 931Z" horiz-adv-x="738" unicode="Ü"/>
			<glyph d="M-20 708H187L338 446L489 708H689L417 300V0H246V300ZM377 908H543L397 764H273Z" horiz-adv-x="669" unicode="Ý"/>
			<glyph d="M73 708H244V587H333Q459 587 534 535T610 369Q610 254 531 200T329 146H244V0H73ZM244 450V282H316Q371 282 405 302T439 368Q439 415 406 432T319 450Z" horiz-adv-x="640" unicode="Þ"/>
			<glyph d="M338 768Q405 768 460 743T547 673T580 568Q580 514 550 473T476 418V417Q546 403 587 351T629 222Q629 113 559 50T373 -13Q327 -13 277 -1V140Q292 134 314 130T350 127Q402 127 432 152T463 230Q463 287 425 315T328 344H307V473H329Q360 473 387 490T415 554Q415 588 392 611T331 635Q276 635 252 595T228 500V0H64V501Q64 621 133 694T338 768Z" horiz-adv-x="667" unicode="ß"/>
			<glyph d="M278 514Q488 514 488 291V93Q488 32 496 0H347Q341 25 338 53H335Q317 23 274 5T185 -12Q124 -12 78 26T33 144Q33 310 321 312H333V320Q333 355 308 373T243 392Q210 392 168 377T97 344L60 459Q110 488 162 501T278 514ZM317 221Q260 221 222 205T184 149Q184 122 198 110T235 98Q280 98 309 126T338 200V221ZM112 716H278L382 572H258Z" horiz-adv-x="546" unicode="à"/>
			<glyph d="M278 514Q488 514 488 291V93Q488 32 496 0H347Q341 25 338 53H335Q317 23 274 5T185 -12Q124 -12 78 26T33 144Q33 310 321 312H333V320Q333 355 308 373T243 392Q210 392 168 377T97 344L60 459Q110 488 162 501T278 514ZM317 221Q260 221 222 205T184 149Q184 122 198 110T235 98Q280 98 309 126T338 200V221ZM292 716H458L312 572H188Z" horiz-adv-x="546" unicode="á"/>
			<glyph d="M278 514Q488 514 488 291V93Q488 32 496 0H347Q341 25 338 53H335Q317 23 274 5T185 -12Q124 -12 78 26T33 144Q33 310 321 312H333V320Q333 355 308 373T243 392Q210 392 168 377T97 344L60 459Q110 488 162 501T278 514ZM317 221Q260 221 222 205T184 149Q184 122 198 110T235 98Q280 98 309 126T338 200V221ZM212 716H360L482 572H352L284 653L216 572H88Z" horiz-adv-x="546" unicode="â"/>
			<glyph d="M278 514Q488 514 488 291V93Q488 32 496 0H347Q341 25 338 53H335Q317 23 274 5T185 -12Q124 -12 78 26T33 144Q33 310 321 312H333V320Q333 355 308 373T243 392Q210 392 168 377T97 344L60 459Q110 488 162 501T278 514ZM317 221Q260 221 222 205T184 149Q184 122 198 110T235 98Q280 98 309 126T338 200V221ZM402 708H473Q466 650 438 613T360 576Q325 576 279 597Q240 617 216 617Q185 617 174 577H102Q110 635 137 671T215 707Q252 707 295 687T360 667Q378 667 387 677T402 708Z" horiz-adv-x="566" unicode="ã"/>
			<glyph d="M278 514Q488 514 488 291V93Q488 32 496 0H347Q341 25 338 53H335Q317 23 274 5T185 -12Q124 -12 78 26T33 144Q33 310 321 312H333V320Q333 355 308 373T243 392Q210 392 168 377T97 344L60 459Q110 488 162 501T278 514ZM317 221Q260 221 222 205T184 149Q184 122 198 110T235 98Q280 98 309 126T338 200V221ZM176 739Q211 739 235 715T260 658Q260 624 235 600T176 576Q142 576 117 600T93 658Q93 691 117 715T176 739ZM394 739Q428 739 452 715T477 658Q477 624 452 600T394 576Q359 576 335 600T311 658Q311 690 335 714T394 739Z" horiz-adv-x="546" unicode="ä"/>
			<glyph d="M278 514Q488 514 488 291V93Q488 32 496 0H347Q341 25 338 53H335Q317 23 274 5T185 -12Q124 -12 78 26T33 144Q33 310 321 312H333V320Q333 355 308 373T243 392Q210 392 168 377T97 344L60 459Q110 488 162 501T278 514ZM317 221Q260 221 222 205T184 149Q184 122 198 110T235 98Q280 98 309 126T338 200V221ZM287 771Q332 771 364 740T396 664Q396 618 364 587T287 557Q242 557 210 587T178 663Q178 709 209 740T287 771ZM287 722Q262 722 245 705T228 663Q228 639 245 622T287 606Q312 606 329 622T346 664Q346 689 329 705T287 722Z" horiz-adv-x="546" unicode="å"/>
			<glyph d="M279 514Q336 514 377 493T440 441Q469 474 512 494T611 514Q684 514 740 481T829 387T861 243Q861 228 859 204H499Q504 161 542 135T641 110Q686 110 731 122T806 152L828 35Q746 -16 614 -16Q555 -16 505 7T427 74Q374 -12 225 -12Q178 -12 134 4T61 55T33 144Q33 238 115 271T345 305H353V312Q353 353 329 372T264 392Q201 392 126 336L75 439Q114 475 168 494T279 514ZM611 401Q565 401 533 373T498 306H709Q709 347 683 374T611 401ZM337 207Q260 207 222 195T184 149Q184 123 205 110T255 98Q304 98 331 123T358 191V207Z" horiz-adv-x="899" unicode="æ"/>
			<glyph d="M317 514Q363 514 412 499T489 463L432 342Q380 377 320 377Q269 377 237 339T205 249Q205 195 240 158T335 122Q374 122 405 133T468 169L489 41Q462 18 418 2T323 -16L288 -60Q295 -59 306 -59Q350 -59 379 -77T409 -142Q409 -194 364 -217T262 -240Q231 -240 198 -233T143 -215L170 -155Q210 -174 254 -174Q274 -174 289 -166T304 -141Q304 -125 290 -118T257 -112Q235 -112 217 -118L186 -89L245 -10Q155 8 97 77T39 249Q39 328 76 388T176 481T317 514Z" horiz-adv-x="503" unicode="ç"/>
			<glyph d="M308 514Q382 514 438 481T526 387T558 243Q558 216 557 204H196Q200 163 241 136T338 110Q422 110 503 152L525 34Q439 -16 313 -16Q237 -16 174 15T75 106T39 247Q39 327 74 387T171 481T308 514ZM309 401Q263 401 231 373T196 306H407Q407 347 381 374T309 401ZM132 716H298L402 572H278Z" horiz-adv-x="596" unicode="è"/>
			<glyph d="M308 514Q382 514 438 481T526 387T558 243Q558 216 557 204H196Q200 163 241 136T338 110Q422 110 503 152L525 34Q439 -16 313 -16Q237 -16 174 15T75 106T39 247Q39 327 74 387T171 481T308 514ZM309 401Q263 401 231 373T196 306H407Q407 347 381 374T309 401ZM311 716H477L331 572H207Z" horiz-adv-x="596" unicode="é"/>
			<glyph d="M308 514Q382 514 438 481T526 387T558 243Q558 216 557 204H196Q200 163 241 136T338 110Q422 110 503 152L525 34Q439 -16 313 -16Q237 -16 174 15T75 106T39 247Q39 327 74 387T171 481T308 514ZM309 401Q263 401 231 373T196 306H407Q407 347 381 374T309 401ZM241 716H389L511 572H381L313 653L245 572H117Z" horiz-adv-x="596" unicode="ê"/>
			<glyph d="M308 514Q382 514 438 481T526 387T558 243Q558 216 557 204H196Q200 163 241 136T338 110Q422 110 503 152L525 34Q439 -16 313 -16Q237 -16 174 15T75 106T39 247Q39 327 74 387T171 481T308 514ZM309 401Q263 401 231 373T196 306H407Q407 347 381 374T309 401ZM204 739Q239 739 263 715T288 658Q288 624 263 600T204 576Q170 576 145 600T121 658Q121 691 145 715T204 739ZM422 739Q456 739 480 715T505 658Q505 624 480 600T422 576Q387 576 363 600T339 658Q339 690 363 714T422 739Z" horiz-adv-x="596" unicode="ë"/>
			<glyph d="M66 498H230V0H66ZM-42 716H124L228 572H104Z" horiz-adv-x="296" unicode="ì"/>
			<glyph d="M66 498H230V0H66ZM171 716H337L191 572H67Z" horiz-adv-x="296" unicode="í"/>
			<glyph d="M66 498H230V0H66ZM78 716H226L348 572H218L150 653L82 572H-46Z" horiz-adv-x="296" unicode="î"/>
			<glyph d="M66 498H230V0H66ZM41 739Q76 739 100 715T125 658Q125 624 100 600T41 576Q7 576 -17 600T-42 658Q-42 691 -17 715T41 739ZM259 739Q293 739 317 715T342 658Q342 624 317 600T259 576Q224 576 200 600T176 658Q176 690 200 714T259 739Z" horiz-adv-x="296" unicode="ï"/>
			<glyph d="M262 799Q296 774 348 727L461 777L548 706L427 654Q505 569 549 477T593 282Q593 191 558 123T461 20T315 -16Q239 -16 176 17T76 110T39 250Q39 327 74 386T169 478T303 510Q352 510 385 485L387 486Q336 561 289 600L181 552L101 622L210 669Q185 694 135 728ZM315 377Q260 377 228 339T197 250Q197 198 229 160T316 122Q371 122 403 160T435 250Q435 301 402 339T315 377Z" horiz-adv-x="632" unicode="ð"/>
			<glyph d="M374 512Q467 512 511 452T556 308V0H391V272Q391 377 317 377Q275 377 252 346T229 270V0H64V404Q64 446 59 498H217Q223 464 223 429H225Q243 464 283 488T374 512ZM426 708H497Q490 650 462 613T384 576Q349 576 303 597Q264 617 240 617Q209 617 198 577H126Q134 635 161 671T239 707Q276 707 319 687T384 667Q402 667 411 677T426 708Z" horiz-adv-x="616" unicode="ñ"/>
			<glyph d="M315 514Q391 514 454 482T555 390T592 251Q592 172 554 111T454 17T315 -16Q240 -16 176 17T76 111T39 251Q39 330 76 390T176 482T315 514ZM315 378Q260 378 229 340T198 251Q198 199 229 160T316 122Q371 122 402 160T434 251Q434 302 402 340T315 378ZM127 716H293L397 572H273Z" horiz-adv-x="632" unicode="ò"/>
			<glyph d="M315 514Q391 514 454 482T555 390T592 251Q592 172 554 111T454 17T315 -16Q240 -16 176 17T76 111T39 251Q39 330 76 390T176 482T315 514ZM315 378Q260 378 229 340T198 251Q198 199 229 160T316 122Q371 122 402 160T434 251Q434 302 402 340T315 378ZM334 716H500L354 572H230Z" horiz-adv-x="632" unicode="ó"/>
			<glyph d="M315 514Q391 514 454 482T555 390T592 251Q592 172 554 111T454 17T315 -16Q240 -16 176 17T76 111T39 251Q39 330 76 390T176 482T315 514ZM315 378Q260 378 229 340T198 251Q198 199 229 160T316 122Q371 122 402 160T434 251Q434 302 402 340T315 378ZM245 716H393L515 572H385L317 653L249 572H121Z" horiz-adv-x="632" unicode="ô"/>
			<glyph d="M315 514Q391 514 454 482T555 390T592 251Q592 172 554 111T454 17T315 -16Q240 -16 176 17T76 111T39 251Q39 330 76 390T176 482T315 514ZM315 378Q260 378 229 340T198 251Q198 199 229 160T316 122Q371 122 402 160T434 251Q434 302 402 340T315 378ZM430 708H501Q494 650 466 613T388 576Q353 576 307 597Q268 617 244 617Q213 617 202 577H130Q138 635 165 671T243 707Q280 707 323 687T388 667Q406 667 415 677T430 708Z" horiz-adv-x="632" unicode="õ"/>
			<glyph d="M315 514Q391 514 454 482T555 390T592 251Q592 172 554 111T454 17T315 -16Q240 -16 176 17T76 111T39 251Q39 330 76 390T176 482T315 514ZM315 378Q260 378 229 340T198 251Q198 199 229 160T316 122Q371 122 402 160T434 251Q434 302 402 340T315 378ZM206 739Q241 739 265 715T290 658Q290 624 265 600T206 576Q172 576 147 600T123 658Q123 691 147 715T206 739ZM424 739Q458 739 482 715T507 658Q507 624 482 600T424 576Q389 576 365 600T341 658Q341 690 365 714T424 739Z" horiz-adv-x="632" unicode="ö"/>
			<glyph d="M333 573Q368 573 393 548T419 489Q419 454 393 429T333 404Q298 404 272 429T246 489Q246 523 272 548T333 573ZM79 367H586V240H79ZM333 201Q368 201 393 176T419 117Q419 82 393 57T333 32Q298 32 272 57T246 117Q246 151 272 176T333 201Z" horiz-adv-x="666" unicode="÷"/>
			<glyph d="M547 538L607 480L537 411Q592 347 592 250Q592 172 555 111T454 17T315 -16Q270 -16 229 -4T158 31L83 -43L24 15L96 86Q69 117 54 159T39 250Q39 328 76 388T176 482T315 515Q409 515 475 466ZM313 384Q257 384 224 345T192 254Q192 238 195 222T206 197L372 365Q361 373 345 378T313 384ZM423 306L256 138Q266 128 282 123T317 118Q373 118 404 156T436 248Q436 284 423 306Z" horiz-adv-x="632" unicode="ø"/>
			<glyph d="M59 498H224V228Q224 180 240 151T298 122Q339 122 362 153T386 229V498H550V92Q550 52 555 0H397Q392 38 392 69Q372 33 329 9T240 -14Q147 -14 103 45T59 190ZM138 716H304L408 572H284Z" horiz-adv-x="614" unicode="ù"/>
			<glyph d="M59 498H224V228Q224 180 240 151T298 122Q339 122 362 153T386 229V498H550V92Q550 52 555 0H397Q392 38 392 69Q372 33 329 9T240 -14Q147 -14 103 45T59 190ZM323 716H489L343 572H219Z" horiz-adv-x="614" unicode="ú"/>
			<glyph d="M59 498H224V228Q224 180 240 151T298 122Q339 122 362 153T386 229V498H550V92Q550 52 555 0H397Q392 38 392 69Q372 33 329 9T240 -14Q147 -14 103 45T59 190ZM235 716H383L505 572H375L307 653L239 572H111Z" horiz-adv-x="614" unicode="û"/>
			<glyph d="M59 498H224V228Q224 180 240 151T298 122Q339 122 362 153T386 229V498H550V92Q550 52 555 0H397Q392 38 392 69Q372 33 329 9T240 -14Q147 -14 103 45T59 190ZM198 739Q233 739 257 715T282 658Q282 624 257 600T198 576Q164 576 139 600T115 658Q115 691 139 715T198 739ZM416 739Q450 739 474 715T499 658Q499 624 474 600T416 576Q381 576 357 600T333 658Q333 690 357 714T416 739Z" horiz-adv-x="614" unicode="ü"/>
			<glyph d="M-1 498H181L299 178L394 498H568L371 -24Q332 -127 274 -176T123 -240L69 -105Q122 -92 154 -69T207 -10L214 8ZM322 716H488L342 572H218Z" horiz-adv-x="567" unicode="ý"/>
			<glyph d="M66 756H229V445H232Q256 474 294 493T384 512Q454 512 507 476T590 381T619 251Q619 180 590 119T508 22T382 -14Q336 -14 294 5T231 56H229V-240H66ZM343 378Q308 378 280 359T238 311T223 250Q223 217 238 187T280 140T343 122Q398 122 429 160T461 251Q461 303 429 340T343 378Z" horiz-adv-x="659" unicode="þ"/>
			<glyph d="M-1 498H181L299 178L394 498H568L371 -24Q332 -127 274 -176T123 -240L69 -105Q122 -92 154 -69T207 -10L214 8ZM184 739Q219 739 243 715T268 658Q268 624 243 600T184 576Q150 576 125 600T101 658Q101 691 125 715T184 739ZM402 739Q436 739 460 715T485 658Q485 624 460 600T402 576Q367 576 343 600T319 658Q319 690 343 714T402 739Z" horiz-adv-x="567" unicode="ÿ"/>
			<glyph d="M283 708H449L743 0H553L488 166H234L172 0H-14ZM363 519L283 303H441ZM196 879H532V793H196Z" horiz-adv-x="729" unicode="Ā"/>
			<glyph d="M278 514Q488 514 488 291V93Q488 32 496 0H347Q341 25 338 53H335Q317 23 274 5T185 -12Q124 -12 78 26T33 144Q33 310 321 312H333V320Q333 355 308 373T243 392Q210 392 168 377T97 344L60 459Q110 488 162 501T278 514ZM317 221Q260 221 222 205T184 149Q184 122 198 110T235 98Q280 98 309 126T338 200V221ZM118 687H454V601H118Z" horiz-adv-x="546" unicode="ā"/>
			<glyph d="M283 708H449L743 0H553L488 166H234L172 0H-14ZM363 519L283 303H441ZM189 908H273Q278 878 303 865T363 853Q402 853 424 864T453 908H537Q531 834 484 799T362 764Q288 764 241 799T189 908Z" horiz-adv-x="729" unicode="Ă"/>
			<glyph d="M278 514Q488 514 488 291V93Q488 32 496 0H347Q341 25 338 53H335Q317 23 274 5T185 -12Q124 -12 78 26T33 144Q33 310 321 312H333V320Q333 355 308 373T243 392Q210 392 168 377T97 344L60 459Q110 488 162 501T278 514ZM317 221Q260 221 222 205T184 149Q184 122 198 110T235 98Q280 98 309 126T338 200V221ZM112 716H196Q206 661 286 661Q325 661 347 672T376 716H460Q454 642 407 607T285 572Q211 572 164 607T112 716Z" horiz-adv-x="546" unicode="ă"/>
			<glyph d="M283 708H449L743 0H645Q555 -72 555 -118Q555 -134 565 -144T592 -154Q619 -154 647 -134L679 -196Q655 -214 624 -225T564 -236Q518 -236 484 -213T451 -145Q451 -106 481 -68T553 0L488 166H234L172 0H-14ZM363 519L283 303H441Z" horiz-adv-x="729" unicode="Ą"/>
			<glyph d="M278 514Q488 514 488 291V93Q488 32 496 0H437Q347 -72 347 -118Q347 -134 357 -144T384 -154Q411 -154 439 -134L471 -196Q447 -214 416 -225T356 -236Q310 -236 276 -213T243 -145Q243 -106 273 -68T347 1Q341 26 338 53H335Q317 23 274 5T185 -12Q124 -12 78 26T33 144Q33 310 321 312H333V320Q333 355 308 373T243 392Q210 392 168 377T97 344L60 459Q110 488 162 501T278 514ZM317 221Q260 221 222 205T184 149Q184 122 198 110T235 98Q280 98 309 126T338 200V221Z" horiz-adv-x="546" unicode="ą"/>
			<glyph d="M424 727Q494 727 557 708T664 660L621 503Q582 532 532 552T430 572Q371 572 324 544T252 466T226 355Q226 291 252 242T325 165T436 138Q547 138 643 214L669 61Q624 26 561 3T421 -19Q313 -19 226 28T89 161T40 355Q40 466 90 550T228 681T424 727ZM433 908H599L453 764H329Z" horiz-adv-x="696" unicode="Ć"/>
			<glyph d="M317 514Q363 514 412 499T489 463L432 342Q380 377 320 377Q269 377 237 339T205 249Q205 195 240 158T335 122Q374 122 405 133T468 169L489 41Q460 16 411 0T304 -16Q232 -16 171 16T75 109T39 249Q39 328 76 388T176 481T317 514ZM337 716H503L357 572H233Z" horiz-adv-x="503" unicode="ć"/>
			<glyph d="M424 727Q494 727 557 708T664 660L621 503Q582 532 532 552T430 572Q371 572 324 544T252 466T226 355Q226 291 252 242T325 165T436 138Q547 138 643 214L669 61Q624 26 561 3T421 -19Q313 -19 226 28T89 161T40 355Q40 466 90 550T228 681T424 727ZM355 908H503L625 764H495L427 845L359 764H231Z" horiz-adv-x="696" unicode="Ĉ"/>
			<glyph d="M317 514Q363 514 412 499T489 463L432 342Q380 377 320 377Q269 377 237 339T205 249Q205 195 240 158T335 122Q374 122 405 133T468 169L489 41Q460 16 411 0T304 -16Q232 -16 171 16T75 109T39 249Q39 328 76 388T176 481T317 514ZM246 716H394L516 572H386L318 653L250 572H122Z" horiz-adv-x="503" unicode="ĉ"/>
			<glyph d="M424 727Q494 727 557 708T664 660L621 503Q582 532 532 552T430 572Q371 572 324 544T252 466T226 355Q226 291 252 242T325 165T436 138Q547 138 643 214L669 61Q624 26 561 3T421 -19Q313 -19 226 28T89 161T40 355Q40 466 90 550T228 681T424 727ZM425 935Q463 935 489 910T515 849Q515 813 489 788T425 764Q388 764 362 789T336 849Q336 884 362 909T425 935Z" horiz-adv-x="696" unicode="Ċ"/>
			<glyph d="M317 514Q363 514 412 499T489 463L432 342Q380 377 320 377Q269 377 237 339T205 249Q205 195 240 158T335 122Q374 122 405 133T468 169L489 41Q460 16 411 0T304 -16Q232 -16 171 16T75 109T39 249Q39 328 76 388T176 481T317 514ZM320 743Q358 743 384 718T410 657Q410 621 384 596T320 572Q283 572 257 597T231 657Q231 692 257 717T320 743Z" horiz-adv-x="503" unicode="ċ"/>
			<glyph d="M424 727Q494 727 557 708T664 660L621 503Q582 532 532 552T430 572Q371 572 324 544T252 466T226 355Q226 291 252 242T325 165T436 138Q547 138 643 214L669 61Q624 26 561 3T421 -19Q313 -19 226 28T89 161T40 355Q40 466 90 550T228 681T424 727ZM230 908H360L428 827L496 908H624L501 764H354Z" horiz-adv-x="696" unicode="Č"/>
			<glyph d="M317 514Q363 514 412 499T489 463L432 342Q380 377 320 377Q269 377 237 339T205 249Q205 195 240 158T335 122Q374 122 405 133T468 169L489 41Q460 16 411 0T304 -16Q232 -16 171 16T75 109T39 249Q39 328 76 388T176 481T317 514ZM120 716H250L318 635L386 716H514L391 572H244Z" horiz-adv-x="503" unicode="č"/>
			<glyph d="M73 708H329Q438 708 529 674T677 561T734 356Q734 238 677 157T530 38T337 0H73ZM240 562V148H321Q424 148 490 197T556 356Q556 466 491 514T325 562ZM160 908H290L358 827L426 908H554L431 764H284Z" horiz-adv-x="774" unicode="Ď"/>
			<glyph d="M592 776V120Q592 80 596 0H445Q441 44 441 65H439Q415 28 370 7T276 -14Q204 -14 150 22T67 119T39 251Q39 321 68 381T150 476T274 512Q324 512 363 492T426 445H428V756ZM315 378Q260 378 228 340T197 251Q197 198 228 160T315 122Q351 122 378 140T420 187T435 250Q435 282 420 311T377 359T315 378ZM687 708H832L746 513H620Z" horiz-adv-x="791" unicode="ď"/>
			<glyph d="M74 708H347Q453 708 540 671T679 555T732 356Q732 240 676 159T532 39T346 0H74V309H13V416H74ZM241 559V416H422V309H241V150H315Q426 150 491 200T557 356Q557 457 496 508T331 559Z" horiz-adv-x="774" unicode="Đ"/>
			<glyph d="M428 756H592V659H638V570H592V110Q592 56 595 0H444Q441 33 441 65H439Q415 28 370 7T276 -14Q204 -14 150 22T67 119T39 251Q39 321 68 381T150 476T274 512Q324 512 363 492T426 445H428V570H279V659H428ZM315 378Q260 378 228 340T197 251Q197 198 228 160T315 122Q351 122 378 140T420 187T435 250Q435 282 420 311T377 359T315 378Z" horiz-adv-x="658" unicode="đ"/>
			<glyph d="M73 708H529L509 563H238V430H502L482 293H238V146H547L527 0H73ZM132 879H468V793H132Z" horiz-adv-x="577" unicode="Ē"/>
			<glyph d="M308 514Q382 514 438 481T526 387T558 243Q558 216 557 204H196Q200 163 241 136T338 110Q422 110 503 152L525 34Q439 -16 313 -16Q237 -16 174 15T75 106T39 247Q39 327 74 387T171 481T308 514ZM309 401Q263 401 231 373T196 306H407Q407 347 381 374T309 401ZM144 687H480V601H144Z" horiz-adv-x="596" unicode="ē"/>
			<glyph d="M73 708H529L509 563H238V430H502L482 293H238V146H547L527 0H73ZM136 908H220Q225 878 250 865T310 853Q349 853 371 864T400 908H484Q478 834 431 799T309 764Q235 764 188 799T136 908Z" horiz-adv-x="577" unicode="Ĕ"/>
			<glyph d="M308 514Q382 514 438 481T526 387T558 243Q558 216 557 204H196Q200 163 241 136T338 110Q422 110 503 152L525 34Q439 -16 313 -16Q237 -16 174 15T75 106T39 247Q39 327 74 387T171 481T308 514ZM309 401Q263 401 231 373T196 306H407Q407 347 381 374T309 401ZM138 716H222Q232 661 312 661Q351 661 373 672T402 716H486Q480 642 433 607T311 572Q237 572 190 607T138 716Z" horiz-adv-x="596" unicode="ĕ"/>
			<glyph d="M73 708H529L509 563H238V430H502L482 293H238V146H547L527 0H73ZM310 935Q348 935 374 910T400 849Q400 813 374 788T310 764Q273 764 247 789T221 849Q221 884 247 909T310 935Z" horiz-adv-x="577" unicode="Ė"/>
			<glyph d="M308 514Q382 514 438 481T526 387T558 243Q558 216 557 204H196Q200 163 241 136T338 110Q422 110 503 152L525 34Q439 -16 313 -16Q237 -16 174 15T75 106T39 247Q39 327 74 387T171 481T308 514ZM309 401Q263 401 231 373T196 306H407Q407 347 381 374T309 401ZM311 743Q349 743 375 718T401 657Q401 621 375 596T311 572Q274 572 248 597T222 657Q222 692 248 717T311 743Z" horiz-adv-x="596" unicode="ė"/>
			<glyph d="M73 708H529L509 563H238V430H502L482 293H238V146H547L527 0H486Q396 -72 396 -118Q396 -134 406 -144T433 -154Q460 -154 488 -134L520 -196Q496 -214 465 -225T405 -236Q359 -236 325 -213T292 -145Q292 -106 322 -68T394 0H73Z" horiz-adv-x="577" unicode="Ę"/>
			<glyph d="M308 514Q382 514 438 481T526 387T558 243Q558 216 557 204H196Q200 163 241 136T338 110Q422 110 503 152L525 34Q470 2 399 -9Q320 -76 320 -118Q320 -134 330 -144T357 -154Q384 -154 412 -134L444 -196Q420 -214 389 -225T329 -236Q283 -236 249 -213T216 -145Q216 -84 298 -16Q226 -13 167 19T73 109T39 247Q39 327 74 387T171 481T308 514ZM309 401Q263 401 231 373T196 306H407Q407 347 381 374T309 401Z" horiz-adv-x="596" unicode="ę"/>
			<glyph d="M73 708H529L509 563H238V430H502L482 293H238V146H547L527 0H73ZM114 908H244L312 827L380 908H508L385 764H238Z" horiz-adv-x="577" unicode="Ě"/>
			<glyph d="M308 514Q382 514 438 481T526 387T558 243Q558 216 557 204H196Q200 163 241 136T338 110Q422 110 503 152L525 34Q439 -16 313 -16Q237 -16 174 15T75 106T39 247Q39 327 74 387T171 481T308 514ZM309 401Q263 401 231 373T196 306H407Q407 347 381 374T309 401ZM115 716H245L313 635L381 716H509L386 572H239Z" horiz-adv-x="596" unicode="ě"/>
			<glyph d="M424 727Q502 727 573 704T696 649L632 510Q530 576 430 576Q371 576 323 547T249 468T222 355Q222 255 279 193T438 132Q501 132 545 151V280H410L430 418H702V43Q648 15 578 -1T429 -18Q317 -18 228 29T90 160T40 355Q40 466 90 550T228 681T424 727ZM359 908H507L629 764H499L431 845L363 764H235Z" horiz-adv-x="769" unicode="Ĝ"/>
			<glyph d="M276 512Q325 512 367 492T435 434H437Q439 462 444 498H596Q592 458 592 389V47Q592 -95 516 -167T311 -240Q249 -240 182 -222T72 -178L95 -40Q139 -70 192 -89T299 -108Q363 -108 397 -70T431 31V61H428Q404 30 365 12T277 -5Q204 -5 150 29T67 122T39 251Q39 321 67 380T150 476T276 512ZM315 378Q261 378 229 342T198 252Q198 200 230 162T315 125Q370 125 403 162T436 252Q436 305 402 341T315 378ZM247 716H395L517 572H387L319 653L251 572H123Z" horiz-adv-x="658" unicode="ĝ"/>
			<glyph d="M424 727Q502 727 573 704T696 649L632 510Q530 576 430 576Q371 576 323 547T249 468T222 355Q222 255 279 193T438 132Q501 132 545 151V280H410L430 418H702V43Q648 15 578 -1T429 -18Q317 -18 228 29T90 160T40 355Q40 466 90 550T228 681T424 727ZM262 908H346Q351 878 376 865T436 853Q475 853 497 864T526 908H610Q604 834 557 799T435 764Q361 764 314 799T262 908Z" horiz-adv-x="769" unicode="Ğ"/>
			<glyph d="M276 512Q325 512 367 492T435 434H437Q439 462 444 498H596Q592 458 592 389V47Q592 -95 516 -167T311 -240Q249 -240 182 -222T72 -178L95 -40Q139 -70 192 -89T299 -108Q363 -108 397 -70T431 31V61H428Q404 30 365 12T277 -5Q204 -5 150 29T67 122T39 251Q39 321 67 380T150 476T276 512ZM315 378Q261 378 229 342T198 252Q198 200 230 162T315 125Q370 125 403 162T436 252Q436 305 402 341T315 378ZM151 716H235Q245 661 325 661Q364 661 386 672T415 716H499Q493 642 446 607T324 572Q250 572 203 607T151 716Z" horiz-adv-x="658" unicode="ğ"/>
			<glyph d="M424 727Q502 727 573 704T696 649L632 510Q530 576 430 576Q371 576 323 547T249 468T222 355Q222 255 279 193T438 132Q501 132 545 151V280H410L430 418H702V43Q648 15 578 -1T429 -18Q317 -18 228 29T90 160T40 355Q40 466 90 550T228 681T424 727ZM431 935Q469 935 495 910T521 849Q521 813 495 788T431 764Q394 764 368 789T342 849Q342 884 368 909T431 935Z" horiz-adv-x="769" unicode="Ġ"/>
			<glyph d="M276 512Q325 512 367 492T435 434H437Q439 462 444 498H596Q592 458 592 389V47Q592 -95 516 -167T311 -240Q249 -240 182 -222T72 -178L95 -40Q139 -70 192 -89T299 -108Q363 -108 397 -70T431 31V61H428Q404 30 365 12T277 -5Q204 -5 150 29T67 122T39 251Q39 321 67 380T150 476T276 512ZM315 378Q261 378 229 342T198 252Q198 200 230 162T315 125Q370 125 403 162T436 252Q436 305 402 341T315 378ZM321 743Q359 743 385 718T411 657Q411 621 385 596T321 572Q284 572 258 597T232 657Q232 692 258 717T321 743Z" horiz-adv-x="658" unicode="ġ"/>
			<glyph d="M424 727Q502 727 573 704T696 649L632 510Q530 576 430 576Q371 576 323 547T249 468T222 355Q222 255 279 193T438 132Q501 132 545 151V280H410L430 418H702V43Q648 15 578 -1T429 -18Q317 -18 228 29T90 160T40 355Q40 466 90 550T228 681T424 727ZM361 -45H506L420 -240H294Z" horiz-adv-x="769" unicode="Ģ"/>
			<glyph d="M276 512Q325 512 367 492T435 434H437Q439 462 444 498H596Q592 458 592 389V47Q592 -95 516 -167T311 -240Q249 -240 182 -222T72 -178L95 -40Q139 -70 192 -89T299 -108Q363 -108 397 -70T431 31V61H428Q404 30 365 12T277 -5Q204 -5 150 29T67 122T39 251Q39 321 67 380T150 476T276 512ZM315 378Q261 378 229 342T198 252Q198 200 230 162T315 125Q370 125 403 162T436 252Q436 305 402 341T315 378ZM333 767H459L392 572H247Z" horiz-adv-x="658" unicode="ģ"/>
			<glyph d="M73 708H244V440H550V708H721V0H550V296H244V0H73ZM312 908H460L582 764H452L384 845L316 764H188Z" horiz-adv-x="764" unicode="Ĥ"/>
			<glyph d="M230 776V435H232Q250 467 288 489T375 512Q469 512 513 452T557 308V0H392V270Q392 318 376 346T319 375Q278 375 254 345T230 269V0H66V756ZM242 940H390L512 796H382L314 877L246 796H118Z" horiz-adv-x="617" unicode="ĥ"/>
			<glyph d="M73 708H244V589H550V708H721V0H550V296H244V0H73ZM244 500V440H550V500Z" horiz-adv-x="794" unicode="Ħ"/>
			<glyph d="M66 756H230V659H379V570H230V435H232Q250 467 288 489T375 512Q469 512 513 452T557 308V0H392V270Q392 318 376 346T319 375Q278 375 254 345T230 269V0H66V570H20V659H66Z" horiz-adv-x="617" unicode="ħ"/>
			<glyph d="M73 708H245V0H73ZM274 900H345Q338 842 310 805T232 768Q197 768 151 789Q112 809 88 809Q57 809 46 769H-26Q-18 827 9 863T87 899Q124 899 167 879T232 859Q250 859 259 869T274 900Z" horiz-adv-x="318" unicode="Ĩ"/>
			<glyph d="M66 498H230V0H66ZM264 708H335Q328 650 300 613T222 576Q187 576 141 597Q102 617 78 617Q47 617 36 577H-36Q-28 635 -1 671T77 707Q114 707 157 687T222 667Q240 667 249 677T264 708Z" horiz-adv-x="296" unicode="ĩ"/>
			<glyph d="M73 708H245V0H73ZM-10 879H326V793H-10Z" horiz-adv-x="318" unicode="Ī"/>
			<glyph d="M66 498H230V0H66ZM-18 687H318V601H-18Z" horiz-adv-x="296" unicode="ī"/>
			<glyph d="M73 708H245V0H73ZM-15 908H69Q74 878 99 865T159 853Q198 853 220 864T249 908H333Q327 834 280 799T158 764Q84 764 37 799T-15 908Z" horiz-adv-x="318" unicode="Ĭ"/>
			<glyph d="M66 498H230V0H66ZM-26 716H58Q68 661 148 661Q187 661 209 672T238 716H322Q316 642 269 607T147 572Q73 572 26 607T-26 716Z" horiz-adv-x="296" unicode="ĭ"/>
			<glyph d="M73 708H245V0H233Q143 -72 143 -118Q143 -134 153 -144T180 -154Q207 -154 235 -134L267 -196Q243 -214 212 -225T152 -236Q106 -236 72 -213T39 -145Q39 -106 69 -68T141 0H73Z" horiz-adv-x="318" unicode="Į"/>
			<glyph d="M148 747Q187 747 214 720T242 657Q242 619 214 593T148 567Q109 567 81 593T54 657Q54 693 81 720T148 747ZM66 498H230V0H224Q134 -72 134 -118Q134 -134 144 -144T171 -154Q198 -154 226 -134L258 -196Q234 -214 203 -225T143 -236Q97 -236 63 -213T30 -145Q30 -106 60 -68T132 0H66Z" horiz-adv-x="296" unicode="į"/>
			<glyph d="M73 708H245V0H73ZM159 935Q197 935 223 910T249 849Q249 813 223 788T159 764Q122 764 96 789T70 849Q70 884 96 909T159 935Z" horiz-adv-x="318" unicode="İ"/>
			<glyph d="M66 498H230V0H66Z" horiz-adv-x="296" unicode="ı"/>
			<glyph d="M73 708H245V0H73ZM481 708H653V233Q653 121 592 51T412 -19Q384 -19 357 -16L328 146Q358 136 382 136Q432 136 456 164T481 241Z" horiz-adv-x="722" unicode="Ĳ"/>
			<glyph d="M148 747Q187 747 214 720T242 657Q242 619 214 593T148 567Q109 567 81 593T54 657Q54 693 81 720T148 747ZM66 498H230V0H66ZM441 747Q480 747 507 720T535 657Q535 619 507 593T441 567Q402 567 374 593T347 657Q347 693 374 720T441 747ZM359 498H523V7Q523 -106 474 -172T300 -240L259 -100Q308 -100 333 -71T359 7Z" horiz-adv-x="589" unicode="ĳ"/>
			<glyph d="M173 708H345V233Q345 121 284 51T104 -19Q76 -19 49 -16L20 146Q50 136 74 136Q124 136 148 164T173 241ZM178 908H326L448 764H318L250 845L182 764H54Z" horiz-adv-x="414" unicode="Ĵ"/>
			<glyph d="M69 498H233V-13Q233 -118 189 -179T34 -240Q-8 -240 -37 -232L-26 -95Q-11 -100 9 -100Q43 -100 56 -77T69 -13ZM76 716H224L346 572H216L148 653L80 572H-48Z" horiz-adv-x="299" unicode="ĵ"/>
			<glyph d="M73 708H241V400L497 708H711L413 377L729 0H506L241 336V0H73ZM298 -45H443L357 -240H231Z" horiz-adv-x="711" unicode="Ķ"/>
			<glyph d="M230 776V282H233L392 498H584L403 273L590 0H403L233 244H230V0H65V756ZM240 -45H385L299 -240H173Z" horiz-adv-x="595" unicode="ķ"/>
			<glyph d="M65 498H230V296H233L392 498H591L399 273L599 0H396L233 239H230V0H65Z" horiz-adv-x="595" unicode="ĸ"/>
			<glyph d="M73 708H245V149H519L499 0H73ZM199 908H365L219 764H95Z" horiz-adv-x="526" unicode="Ĺ"/>
			<glyph d="M232 776V235Q232 186 246 157T296 102L199 -20Q136 14 101 69T66 215V756ZM170 936H336L190 792H66Z" horiz-adv-x="304" unicode="ĺ"/>
			<glyph d="M73 708H245V149H519L499 0H73ZM221 -45H366L280 -240H154Z" horiz-adv-x="526" unicode="Ļ"/>
			<glyph d="M232 776V235Q232 186 246 157T296 102L199 -20Q136 14 101 69T66 215V756ZM78 -45H223L137 -240H11Z" horiz-adv-x="304" unicode="ļ"/>
			<glyph d="M73 708H245V149H519L499 0H73ZM341 708H486L400 513H274Z" horiz-adv-x="526" unicode="Ľ"/>
			<glyph d="M232 776V235Q232 186 246 157T296 102L199 -20Q136 14 101 69T66 215V756ZM328 708H473L387 513H261Z" horiz-adv-x="432" unicode="ľ"/>
			<glyph d="M73 708H245V149H519L499 0H73ZM388 523Q426 523 452 498T478 437Q478 401 452 376T388 352Q351 352 325 377T299 437Q299 472 325 497T388 523Z" horiz-adv-x="526" unicode="Ŀ"/>
			<glyph d="M232 776V235Q232 186 246 157T296 102L199 -20Q136 14 101 69T66 215V756ZM358 553Q396 553 422 528T448 467Q448 431 422 406T358 382Q321 382 295 407T269 467Q269 502 295 527T358 553Z" horiz-adv-x="448" unicode="ŀ"/>
			<glyph d="M73 708H245V446L436 613V472L245 305V149H519L499 0H73V177L9 121V263L73 319Z" horiz-adv-x="526" unicode="Ł"/>
			<glyph d="M232 776V539L290 596V454L232 398V235Q232 186 246 157T296 102L199 -20Q136 14 101 69T66 215V267L8 211V354L66 411V756Z" horiz-adv-x="304" unicode="ł"/>
			<glyph d="M73 708H268L552 246H555L551 708H717V0H523L238 463H235L239 0H73ZM422 908H588L442 764H318Z" horiz-adv-x="790" unicode="Ń"/>
			<glyph d="M374 512Q467 512 511 452T556 308V0H391V272Q391 377 317 377Q275 377 252 346T229 270V0H64V404Q64 446 59 498H217Q223 464 223 429H225Q243 464 283 488T374 512ZM318 716H484L338 572H214Z" horiz-adv-x="616" unicode="ń"/>
			<glyph d="M73 708H268L552 246H555L551 708H717V0H523L238 463H235L239 0H73ZM320 -45H465L379 -240H253Z" horiz-adv-x="790" unicode="Ņ"/>
			<glyph d="M374 512Q467 512 511 452T556 308V0H391V272Q391 377 317 377Q275 377 252 346T229 270V0H64V404Q64 446 59 498H217Q223 464 223 429H225Q243 464 283 488T374 512ZM234 -45H379L293 -240H167Z" horiz-adv-x="616" unicode="ņ"/>
			<glyph d="M73 708H268L552 246H555L551 708H717V0H523L238 463H235L239 0H73ZM201 908H331L399 827L467 908H595L472 764H325Z" horiz-adv-x="790" unicode="Ň"/>
			<glyph d="M374 512Q467 512 511 452T556 308V0H391V272Q391 377 317 377Q275 377 252 346T229 270V0H64V404Q64 446 59 498H217Q223 464 223 429H225Q243 464 283 488T374 512ZM113 716H243L311 635L379 716H507L384 572H237Z" horiz-adv-x="616" unicode="ň"/>
			<glyph d="M464 512Q557 512 601 452T646 308V0H481V272Q481 377 407 377Q365 377 342 346T319 270V0H154V404Q154 446 149 498H307Q313 464 313 429H315Q333 464 373 488T464 512ZM58 708H203L117 513H-9Z" horiz-adv-x="706" unicode="ŉ"/>
			<glyph d="M73 708H268L552 275H555L551 708H717V-13Q717 -118 673 -179T518 -240Q476 -240 447 -232L458 -95Q473 -100 493 -100Q527 -100 540 -77T553 -13V-8L238 463H235L239 0H73Z" horiz-adv-x="790" unicode="Ŋ"/>
			<glyph d="M374 512Q467 512 511 452T556 308V-13Q556 -118 512 -179T357 -240Q315 -240 286 -232L297 -95Q312 -100 332 -100Q366 -100 378 -77T391 -13V272Q391 377 317 377Q275 377 252 346T229 270V0H64V420Q64 459 61 498H220Q223 464 223 429H225Q243 464 283 488T374 512Z" horiz-adv-x="616" unicode="ŋ"/>
			<glyph d="M425 727Q536 727 623 681T761 552T811 357Q811 247 761 161T623 28T425 -19Q315 -19 227 28T90 161T40 357Q40 468 89 552T227 681T425 727ZM425 573Q366 573 320 545T248 468T223 357Q223 294 248 243T320 165T425 137Q484 137 530 165T602 243T628 357Q628 418 602 467T530 545T425 573ZM255 879H591V793H255Z" horiz-adv-x="851" unicode="Ō"/>
			<glyph d="M315 514Q391 514 454 482T555 390T592 251Q592 172 554 111T454 17T315 -16Q240 -16 176 17T76 111T39 251Q39 330 76 390T176 482T315 514ZM315 378Q260 378 229 340T198 251Q198 199 229 160T316 122Q371 122 402 160T434 251Q434 302 402 340T315 378ZM147 687H483V601H147Z" horiz-adv-x="632" unicode="ō"/>
			<glyph d="M425 727Q536 727 623 681T761 552T811 357Q811 247 761 161T623 28T425 -19Q315 -19 227 28T90 161T40 357Q40 468 89 552T227 681T425 727ZM425 573Q366 573 320 545T248 468T223 357Q223 294 248 243T320 165T425 137Q484 137 530 165T602 243T628 357Q628 418 602 467T530 545T425 573ZM250 908H334Q339 878 364 865T424 853Q463 853 485 864T514 908H598Q592 834 545 799T423 764Q349 764 302 799T250 908Z" horiz-adv-x="851" unicode="Ŏ"/>
			<glyph d="M315 514Q391 514 454 482T555 390T592 251Q592 172 554 111T454 17T315 -16Q240 -16 176 17T76 111T39 251Q39 330 76 390T176 482T315 514ZM315 378Q260 378 229 340T198 251Q198 199 229 160T316 122Q371 122 402 160T434 251Q434 302 402 340T315 378ZM140 716H224Q234 661 314 661Q353 661 375 672T404 716H488Q482 642 435 607T313 572Q239 572 192 607T140 716Z" horiz-adv-x="632" unicode="ŏ"/>
			<glyph d="M425 727Q536 727 623 681T761 552T811 357Q811 247 761 161T623 28T425 -19Q315 -19 227 28T90 161T40 357Q40 468 89 552T227 681T425 727ZM425 573Q366 573 320 545T248 468T223 357Q223 294 248 243T320 165T425 137Q484 137 530 165T602 243T628 357Q628 418 602 467T530 545T425 573ZM349 908H515L369 764H245ZM569 908H735L589 764H465Z" horiz-adv-x="851" unicode="Ő"/>
			<glyph d="M315 514Q391 514 454 482T555 390T592 251Q592 172 554 111T454 17T315 -16Q240 -16 176 17T76 111T39 251Q39 330 76 390T176 482T315 514ZM315 378Q260 378 229 340T198 251Q198 199 229 160T316 122Q371 122 402 160T434 251Q434 302 402 340T315 378ZM247 716H413L267 572H143ZM467 716H633L487 572H363Z" horiz-adv-x="632" unicode="ő"/>
			<glyph d="M442 708H972L952 563H664V430H945L925 293H664V146H989L969 0H442Q335 0 244 37T96 153T40 355Q40 478 96 557T244 672T442 708ZM455 563Q352 563 287 514T222 352Q222 247 288 196T451 146H501V563Z" horiz-adv-x="1019" unicode="Œ"/>
			<glyph d="M313 514Q372 514 421 490T500 427Q533 466 581 490T687 514Q760 514 816 481T903 387T935 243Q935 216 934 204H573Q578 161 616 135T715 110Q762 110 805 122T880 152L902 37Q866 13 812 -1T690 -16Q628 -16 577 6T499 67Q469 28 421 6T313 -16Q237 -16 174 17T75 110T39 251Q39 330 75 389T174 481T313 514ZM686 401Q640 401 608 373T573 306H784Q784 347 758 374T686 401ZM315 378Q260 378 229 340T198 251Q198 199 229 160T315 122Q370 122 401 160T433 251Q433 302 401 340T315 378Z" horiz-adv-x="973" unicode="œ"/>
			<glyph d="M73 708H323Q440 708 517 655T594 484Q594 419 555 361T457 283L652 0H452L289 261H241V0H73ZM240 570V385H301Q425 385 425 481Q425 526 390 548T311 570ZM330 908H496L350 764H226Z" horiz-adv-x="663" unicode="Ŕ"/>
			<glyph d="M339 512Q368 512 394 505L372 364Q352 369 330 369Q277 369 252 333T228 256V0H64V372Q64 452 58 498H215Q222 466 222 426H224Q240 465 270 488T339 512ZM211 716H377L231 572H107Z" horiz-adv-x="396" unicode="ŕ"/>
			<glyph d="M73 708H323Q440 708 517 655T594 484Q594 419 555 361T457 283L652 0H452L289 261H241V0H73ZM240 570V385H301Q425 385 425 481Q425 526 390 548T311 570ZM268 -45H413L327 -240H201Z" horiz-adv-x="663" unicode="Ŗ"/>
			<glyph d="M339 512Q368 512 394 505L372 364Q352 369 330 369Q277 369 252 333T228 256V0H64V372Q64 452 58 498H215Q222 466 222 426H224Q240 465 270 488T339 512ZM79 -46H224L138 -241H12Z" horiz-adv-x="396" unicode="ŗ"/>
			<glyph d="M73 708H323Q440 708 517 655T594 484Q594 419 555 361T457 283L652 0H452L289 261H241V0H73ZM240 570V385H301Q425 385 425 481Q425 526 390 548T311 570ZM123 908H253L321 827L389 908H517L394 764H247Z" horiz-adv-x="663" unicode="Ř"/>
			<glyph d="M339 512Q368 512 394 505L372 364Q352 369 330 369Q277 369 252 333T228 256V0H64V372Q64 452 58 498H215Q222 466 222 426H224Q240 465 270 488T339 512ZM31 716H161L229 635L297 716H425L302 572H155Z" horiz-adv-x="396" unicode="ř"/>
			<glyph d="M317 726Q380 726 439 710T539 671L487 535Q457 555 409 570T323 585Q282 585 252 568T222 514Q222 482 247 466T331 431Q397 410 441 388T518 324T551 218Q551 141 513 87T416 8T293 -18Q223 -18 158 0T43 50L72 205Q122 168 177 145T280 123Q324 123 351 140T378 197Q378 223 361 240T315 270T231 301Q148 328 99 372T50 504Q50 578 89 628T189 702T317 726ZM321 908H487L341 764H217Z" horiz-adv-x="591" unicode="Ś"/>
			<glyph d="M240 514Q298 514 347 498T429 459L370 353Q345 371 312 383T253 396Q227 396 209 386T191 356Q191 336 210 327T282 306Q441 270 441 154Q441 67 378 25T229 -16Q172 -16 117 -2T31 32L52 155Q133 102 208 102Q284 102 284 145Q284 167 262 178T185 202Q40 236 40 347Q40 403 70 440T146 496T240 514ZM258 716H424L278 572H154Z" horiz-adv-x="472" unicode="ś"/>
			<glyph d="M317 726Q380 726 439 710T539 671L487 535Q457 555 409 570T323 585Q282 585 252 568T222 514Q222 482 247 466T331 431Q397 410 441 388T518 324T551 218Q551 141 513 87T416 8T293 -18Q223 -18 158 0T43 50L72 205Q122 168 177 145T280 123Q324 123 351 140T378 197Q378 223 361 240T315 270T231 301Q148 328 99 372T50 504Q50 578 89 628T189 702T317 726ZM248 908H396L518 764H388L320 845L252 764H124Z" horiz-adv-x="591" unicode="Ŝ"/>
			<glyph d="M240 514Q298 514 347 498T429 459L370 353Q345 371 312 383T253 396Q227 396 209 386T191 356Q191 336 210 327T282 306Q441 270 441 154Q441 67 378 25T229 -16Q172 -16 117 -2T31 32L52 155Q133 102 208 102Q284 102 284 145Q284 167 262 178T185 202Q40 236 40 347Q40 403 70 440T146 496T240 514ZM175 716H323L445 572H315L247 653L179 572H51Z" horiz-adv-x="472" unicode="ŝ"/>
			<glyph d="M317 726Q380 726 439 710T539 671L487 535Q457 555 409 570T323 585Q282 585 252 568T222 514Q222 482 247 466T331 431Q397 410 441 388T518 324T551 218Q551 150 521 100T442 22T337 -15L302 -60Q309 -59 320 -59Q364 -59 393 -77T423 -142Q423 -194 378 -217T276 -240Q245 -240 212 -233T157 -215L184 -155Q224 -174 268 -174Q288 -174 303 -166T318 -141Q318 -125 304 -118T271 -112Q249 -112 231 -118L200 -89L255 -17Q137 -8 43 50L72 205Q122 168 177 145T280 123Q324 123 351 140T378 197Q378 223 361 240T315 270T231 301Q148 328 99 372T50 504Q50 578 89 628T189 702T317 726Z" horiz-adv-x="591" unicode="Ş"/>
			<glyph d="M240 514Q298 514 347 498T429 459L370 353Q345 371 312 383T253 396Q227 396 209 386T191 356Q191 336 210 327T282 306Q441 270 441 154Q441 82 397 41T286 -11L248 -60Q255 -59 266 -59Q310 -59 339 -77T369 -142Q369 -194 324 -217T222 -240Q191 -240 158 -233T103 -215L130 -155Q170 -174 214 -174Q234 -174 249 -166T264 -141Q264 -125 250 -118T217 -112Q195 -112 177 -118L146 -89L202 -15Q151 -12 105 1T31 32L52 155Q133 102 208 102Q284 102 284 145Q284 167 262 178T185 202Q40 236 40 347Q40 403 70 440T146 496T240 514Z" horiz-adv-x="472" unicode="ş"/>
			<glyph d="M317 726Q380 726 439 710T539 671L487 535Q457 555 409 570T323 585Q282 585 252 568T222 514Q222 482 247 466T331 431Q397 410 441 388T518 324T551 218Q551 141 513 87T416 8T293 -18Q223 -18 158 0T43 50L72 205Q122 168 177 145T280 123Q324 123 351 140T378 197Q378 223 361 240T315 270T231 301Q148 328 99 372T50 504Q50 578 89 628T189 702T317 726ZM126 908H256L324 827L392 908H520L397 764H250Z" horiz-adv-x="591" unicode="Š"/>
			<glyph d="M240 514Q298 514 347 498T429 459L370 353Q345 371 312 383T253 396Q227 396 209 386T191 356Q191 336 210 327T282 306Q441 270 441 154Q441 67 378 25T229 -16Q172 -16 117 -2T31 32L52 155Q133 102 208 102Q284 102 284 145Q284 167 262 178T185 202Q40 236 40 347Q40 403 70 440T146 496T240 514ZM50 716H180L248 635L316 716H444L321 572H174Z" horiz-adv-x="472" unicode="š"/>
			<glyph d="M15 708H586L566 562H376V0H205V562H-5ZM220 -45H365L279 -240H153Z" horiz-adv-x="581" unicode="Ţ"/>
			<glyph d="M242 629V498H375L355 375H242V185Q242 149 255 132T300 115Q330 115 365 128L383 16Q318 -12 242 -12Q160 -12 121 35T82 165V375H2L22 498H81V599ZM143 -45H288L202 -240H76Z" horiz-adv-x="390" unicode="ţ"/>
			<glyph d="M15 708H586L566 562H376V0H205V562H-5ZM94 908H224L292 827L360 908H488L365 764H218Z" horiz-adv-x="581" unicode="Ť"/>
			<glyph d="M242 629V498H375L355 375H242V185Q242 149 255 132T300 115Q330 115 365 128L383 16Q318 -12 242 -12Q160 -12 121 35T82 165V375H2L22 498H81V599ZM337 731H482L396 536H270Z" horiz-adv-x="432" unicode="ť"/>
			<glyph d="M15 708H586L566 562H376V477H512V388H376V0H205V388H74V477H205V562H-5Z" horiz-adv-x="581" unicode="Ŧ"/>
			<glyph d="M242 629V498H375L355 375H242V304H349V215H242V185Q242 149 255 132T300 115Q330 115 365 128L383 16Q318 -12 242 -12Q160 -12 121 35T82 165V215H21V304H82V375H2L22 498H81V599Z" horiz-adv-x="390" unicode="ŧ"/>
			<glyph d="M66 708H236V281Q236 218 269 176T369 135Q437 135 469 176T502 281V708H673V267Q673 183 635 118T528 17T368 -19Q276 -19 208 17T103 117T66 267ZM488 900H559Q552 842 524 805T446 768Q411 768 365 789Q326 809 302 809Q271 809 260 769H188Q196 827 223 863T301 899Q338 899 381 879T446 859Q464 859 473 869T488 900Z" horiz-adv-x="738" unicode="Ũ"/>
			<glyph d="M59 498H224V228Q224 180 240 151T298 122Q339 122 362 153T386 229V498H550V92Q550 52 555 0H397Q392 38 392 69Q372 33 329 9T240 -14Q147 -14 103 45T59 190ZM420 708H491Q484 650 456 613T378 576Q343 576 297 597Q258 617 234 617Q203 617 192 577H120Q128 635 155 671T233 707Q270 707 313 687T378 667Q396 667 405 677T420 708Z" horiz-adv-x="614" unicode="ũ"/>
			<glyph d="M66 708H236V281Q236 218 269 176T369 135Q437 135 469 176T502 281V708H673V267Q673 183 635 118T528 17T368 -19Q276 -19 208 17T103 117T66 267ZM206 879H542V793H206Z" horiz-adv-x="738" unicode="Ū"/>
			<glyph d="M59 498H224V228Q224 180 240 151T298 122Q339 122 362 153T386 229V498H550V92Q550 52 555 0H397Q392 38 392 69Q372 33 329 9T240 -14Q147 -14 103 45T59 190ZM136 687H472V601H136Z" horiz-adv-x="614" unicode="ū"/>
			<glyph d="M66 708H236V281Q236 218 269 176T369 135Q437 135 469 176T502 281V708H673V267Q673 183 635 118T528 17T368 -19Q276 -19 208 17T103 117T66 267ZM196 908H280Q285 878 310 865T370 853Q409 853 431 864T460 908H544Q538 834 491 799T369 764Q295 764 248 799T196 908Z" horiz-adv-x="738" unicode="Ŭ"/>
			<glyph d="M59 498H224V228Q224 180 240 151T298 122Q339 122 362 153T386 229V498H550V92Q550 52 555 0H397Q392 38 392 69Q372 33 329 9T240 -14Q147 -14 103 45T59 190ZM131 716H215Q225 661 305 661Q344 661 366 672T395 716H479Q473 642 426 607T304 572Q230 572 183 607T131 716Z" horiz-adv-x="614" unicode="ŭ"/>
			<glyph d="M66 708H236V281Q236 218 269 176T369 135Q437 135 469 176T502 281V708H673V267Q673 183 635 118T528 17T368 -19Q276 -19 208 17T103 117T66 267ZM374 963Q419 963 451 932T483 856Q483 810 451 779T374 749Q329 749 297 779T265 855Q265 901 296 932T374 963ZM374 914Q349 914 332 897T315 855Q315 831 332 814T374 798Q399 798 416 814T433 856Q433 881 416 897T374 914Z" horiz-adv-x="738" unicode="Ů"/>
			<glyph d="M59 498H224V228Q224 180 240 151T298 122Q339 122 362 153T386 229V498H550V92Q550 52 555 0H397Q392 38 392 69Q372 33 329 9T240 -14Q147 -14 103 45T59 190ZM305 771Q350 771 382 740T414 664Q414 618 382 587T305 557Q260 557 228 587T196 663Q196 709 227 740T305 771ZM305 722Q280 722 263 705T246 663Q246 639 263 622T305 606Q330 606 347 622T364 664Q364 689 347 705T305 722Z" horiz-adv-x="614" unicode="ů"/>
			<glyph d="M66 708H236V281Q236 218 269 176T369 135Q437 135 469 176T502 281V708H673V267Q673 183 635 118T528 17T368 -19Q276 -19 208 17T103 117T66 267ZM300 908H466L320 764H196ZM520 908H686L540 764H416Z" horiz-adv-x="738" unicode="Ű"/>
			<glyph d="M59 498H224V228Q224 180 240 151T298 122Q339 122 362 153T386 229V498H550V92Q550 52 555 0H397Q392 38 392 69Q372 33 329 9T240 -14Q147 -14 103 45T59 190ZM236 716H402L256 572H132ZM456 716H622L476 572H352Z" horiz-adv-x="614" unicode="ű"/>
			<glyph d="M66 708H236V281Q236 218 269 176T369 135Q437 135 469 176T502 281V708H673V267Q673 164 617 91T464 -7Q383 -74 383 -118Q383 -134 393 -144T420 -154Q447 -154 475 -134L507 -196Q483 -214 452 -225T392 -236Q346 -236 312 -213T279 -145Q279 -85 357 -19Q269 -17 203 19T101 120T66 267Z" horiz-adv-x="738" unicode="Ų"/>
			<glyph d="M59 498H224V228Q224 180 240 151T298 122Q339 122 362 153T386 229V498H550V92Q550 52 555 0H522Q432 -72 432 -118Q432 -134 442 -144T469 -154Q496 -154 524 -134L556 -196Q532 -214 501 -225T441 -236Q395 -236 361 -213T328 -145Q328 -106 358 -68T430 0H397Q392 38 392 69Q372 33 329 9T240 -14Q147 -14 103 45T59 190Z" horiz-adv-x="614" unicode="ų"/>
			<glyph d="M0 708H184L296 237H299L425 708H603L730 237H733L847 708H1025L823 0H654L514 479H511L371 0H201ZM442 908H590L712 764H582L514 845L446 764H318Z" horiz-adv-x="1025" unicode="Ŵ"/>
			<glyph d="M0 498H177L263 183H266L355 498H520L612 183H614L701 498H871L698 0H533L435 310H433L337 0H172ZM365 716H513L635 572H505L437 653L369 572H241Z" horiz-adv-x="871" unicode="ŵ"/>
			<glyph d="M-20 708H187L338 446L489 708H689L417 300V0H246V300ZM265 908H413L535 764H405L337 845L269 764H141Z" horiz-adv-x="669" unicode="Ŷ"/>
			<glyph d="M-1 498H181L299 178L394 498H568L371 -24Q332 -127 274 -176T123 -240L69 -105Q122 -92 154 -69T207 -10L214 8ZM219 716H367L489 572H359L291 653L223 572H95Z" horiz-adv-x="567" unicode="ŷ"/>
			<glyph d="M-20 708H187L338 446L489 708H689L417 300V0H246V300ZM229 931Q264 931 288 907T313 850Q313 816 288 792T229 768Q195 768 170 792T146 850Q146 883 170 907T229 931ZM447 931Q481 931 505 907T530 850Q530 816 505 792T447 768Q412 768 388 792T364 850Q364 883 388 907T447 931Z" horiz-adv-x="669" unicode="Ÿ"/>
			<glyph d="M57 708H580V571L245 148H617L597 0H39V148L366 563H57ZM351 908H517L371 764H247Z" horiz-adv-x="635" unicode="Ź"/>
			<glyph d="M53 498H468V375L227 127H488L468 0H34V128L268 372H33ZM277 716H443L297 572H173Z" horiz-adv-x="512" unicode="ź"/>
			<glyph d="M57 708H580V571L245 148H617L597 0H39V148L366 563H57ZM328 935Q366 935 392 910T418 849Q418 813 392 788T328 764Q291 764 265 789T239 849Q239 884 265 909T328 935Z" horiz-adv-x="635" unicode="Ż"/>
			<glyph d="M53 498H468V375L227 127H488L468 0H34V128L268 372H33ZM259 743Q297 743 323 718T349 657Q349 621 323 596T259 572Q222 572 196 597T170 657Q170 692 196 717T259 743Z" horiz-adv-x="512" unicode="ż"/>
			<glyph d="M57 708H580V571L245 148H617L597 0H39V148L366 563H57ZM122 908H252L320 827L388 908H516L393 764H246Z" horiz-adv-x="635" unicode="Ž"/>
			<glyph d="M53 498H468V375L227 127H488L468 0H34V128L268 372H33ZM65 716H195L263 635L331 716H459L336 572H189Z" horiz-adv-x="512" unicode="ž"/>
			<glyph d="M469 723Q548 723 606 689L546 568Q516 586 489 586Q456 586 440 564T416 501L402 436H538L518 323H380L325 49Q306 -44 257 -91T120 -139Q88 -139 56 -131T-2 -111L56 9Q79 -7 106 -7Q137 -7 152 15T176 82L225 323H101L121 436H245L261 514Q274 576 295 621T358 694T469 723Z" horiz-adv-x="646" unicode="ƒ"/>
			<glyph d="M410 708H985L965 563H677V430H958L938 293H677V146H1003L983 0H514V153H283L195 0H-4ZM504 563L351 291H514V563ZM679 908H845L699 764H575Z" horiz-adv-x="1033" unicode="Ǽ"/>
			<glyph d="M279 514Q336 514 377 493T440 441Q469 474 512 494T611 514Q684 514 740 481T829 387T861 243Q861 228 859 204H499Q504 161 542 135T641 110Q686 110 731 122T806 152L828 35Q746 -16 614 -16Q555 -16 505 7T427 74Q374 -12 225 -12Q178 -12 134 4T61 55T33 144Q33 238 115 271T345 305H353V312Q353 353 329 372T264 392Q201 392 126 336L75 439Q114 475 168 494T279 514ZM611 401Q565 401 533 373T498 306H709Q709 347 683 374T611 401ZM337 207Q260 207 222 195T184 149Q184 123 205 110T255 98Q304 98 331 123T358 191V207ZM493 716H659L513 572H389Z" horiz-adv-x="899" unicode="ǽ"/>
			<glyph d="M731 765L798 706L712 613Q811 512 811 356Q811 246 761 161T622 29T424 -18Q284 -18 195 51L106 -44L39 13L128 110Q85 156 62 219T40 356Q40 467 89 551T227 680T425 726Q551 726 644 668ZM425 579Q361 579 313 549T239 468T214 355Q214 282 245 235L535 550Q491 579 425 579ZM597 486L305 168Q351 131 424 131Q487 131 535 160T609 241T635 356Q635 436 597 486ZM456 908H622L476 764H352Z" horiz-adv-x="851" unicode="Ǿ"/>
			<glyph d="M547 538L607 480L537 411Q592 347 592 250Q592 172 555 111T454 17T315 -16Q270 -16 229 -4T158 31L83 -43L24 15L96 86Q69 117 54 159T39 250Q39 328 76 388T176 482T315 515Q409 515 475 466ZM313 384Q257 384 224 345T192 254Q192 238 195 222T206 197L372 365Q361 373 345 378T313 384ZM423 306L256 138Q266 128 282 123T317 118Q373 118 404 156T436 248Q436 284 423 306ZM337 716H503L357 572H233Z" horiz-adv-x="632" unicode="ǿ"/>
			<glyph d="M317 726Q380 726 439 710T539 671L487 535Q457 555 409 570T323 585Q282 585 252 568T222 514Q222 482 247 466T331 431Q397 410 441 388T518 324T551 218Q551 141 513 87T416 8T293 -18Q223 -18 158 0T43 50L72 205Q122 168 177 145T280 123Q324 123 351 140T378 197Q378 223 361 240T315 270T231 301Q148 328 99 372T50 504Q50 578 89 628T189 702T317 726ZM219 -45H364L278 -240H152Z" horiz-adv-x="591" unicode="Ș"/>
			<glyph d="M240 514Q298 514 347 498T429 459L370 353Q345 371 312 383T253 396Q227 396 209 386T191 356Q191 336 210 327T282 306Q441 270 441 154Q441 67 378 25T229 -16Q172 -16 117 -2T31 32L52 155Q133 102 208 102Q284 102 284 145Q284 167 262 178T185 202Q40 236 40 347Q40 403 70 440T146 496T240 514ZM159 -45H304L218 -240H92Z" horiz-adv-x="472" unicode="ș"/>
			<glyph d="M15 708H586L566 562H376V0H205V562H-5ZM220 -45H365L279 -240H153Z" horiz-adv-x="581" unicode="Ț"/>
			<glyph d="M242 629V498H375L355 375H242V185Q242 149 255 132T300 115Q330 115 365 128L383 16Q318 -12 242 -12Q160 -12 121 35T82 165V375H2L22 498H81V599ZM143 -45H288L202 -240H76Z" horiz-adv-x="390" unicode="ț"/>
			<glyph d="M69 498H233V-13Q233 -118 189 -179T34 -240Q-8 -240 -37 -232L-26 -95Q-11 -100 9 -100Q43 -100 56 -77T69 -13Z" horiz-adv-x="299" unicode="ȷ"/>
			<glyph d="M77 716H225L347 572H217L149 653L81 572H-47Z" unicode="ˆ"/>
			<glyph d="M-47 716H83L151 635L219 716H347L224 572H77Z" unicode="ˇ"/>
			<glyph d="M-18 879H318V793H-18Z" unicode="ˉ"/>
			<glyph d="M-24 716H60Q70 661 150 661Q189 661 211 672T240 716H324Q318 642 271 607T149 572Q75 572 28 607T-24 716Z" unicode="˘"/>
			<glyph d="M150 743Q188 743 214 718T240 657Q240 621 214 596T150 572Q113 572 87 597T61 657Q61 692 87 717T150 743Z" unicode="˙"/>
			<glyph d="M150 771Q195 771 227 740T259 664Q259 618 227 587T150 557Q105 557 73 587T41 663Q41 709 72 740T150 771ZM150 722Q125 722 108 705T91 663Q91 639 108 622T150 606Q175 606 192 622T209 664Q209 689 192 705T150 722Z" unicode="˚"/>
			<glyph d="M120 4H211Q116 -71 116 -118Q116 -134 126 -144T153 -154Q180 -154 208 -134L240 -196Q216 -214 185 -225T125 -236Q79 -236 45 -213T12 -145Q12 -105 44 -66T120 4Z" unicode="˛"/>
			<glyph d="M264 708H335Q328 650 300 613T222 576Q187 576 141 597Q102 617 78 617Q47 617 36 577H-36Q-28 635 -1 671T77 707Q114 707 157 687T222 667Q240 667 249 677T264 708Z" unicode="˜"/>
			<glyph d="M70 716H236L90 572H-34ZM290 716H456L310 572H186Z" unicode="˝"/>
			<glyph d="M-210 -45H-65L-151 -240H-277Z" horiz-adv-x="0" unicode="̦"/>
			<glyph d="M108 738H284L188 544H69Z" horiz-adv-x="245" unicode="ʹ"/>
			<glyph d="M165 25H284L245 -169H69Z" horiz-adv-x="245" unicode="͵"/>
			<glyph d="M240 708H468L690 108V0H16V109ZM353 587Q348 557 331 508L202 141H506L376 507Q375 511 365 538T353 587Z" horiz-adv-x="744" unicode="Δ"/>
			<glyph d="M398 715Q501 715 580 678T702 574T746 413Q746 326 706 253T586 138H772V0H441V158Q506 199 532 252T558 391Q558 482 512 529T398 577Q328 577 283 529T238 389Q238 304 263 251T352 158V0H24V138H206Q130 176 90 251T50 412Q50 506 93 574T215 678T398 715Z" horiz-adv-x="792" unicode="Ω"/>
			<glyph d="M66 498H247V243Q247 185 265 158T328 131Q381 131 402 175T424 301V498H606V0H473L447 74H439Q423 33 391 11T325 -10Q292 -10 274 0T243 31H241Q247 -25 247 -84V-240H66Z" horiz-adv-x="672" unicode="μ"/>
			<glyph d="M109 498H756V366H634V173Q634 146 647 133T680 120Q697 120 718 125T756 137V26Q731 11 690 0T608 -10Q523 -10 488 35T453 172V366H320V0H139V366H11V437Z" horiz-adv-x="795" unicode="π"/>
			<glyph d="M0 708H184L296 237H299L425 708H603L730 237H733L847 708H1025L823 0H654L514 479H511L371 0H201ZM321 908H487L591 764H467Z" horiz-adv-x="1025" unicode="Ẁ"/>
			<glyph d="M0 498H177L263 183H266L355 498H520L612 183H614L701 498H871L698 0H533L435 310H433L337 0H172ZM239 716H405L509 572H385Z" horiz-adv-x="871" unicode="ẁ"/>
			<glyph d="M0 708H184L296 237H299L425 708H603L730 237H733L847 708H1025L823 0H654L514 479H511L371 0H201ZM541 908H707L561 764H437Z" horiz-adv-x="1025" unicode="Ẃ"/>
			<glyph d="M0 498H177L263 183H266L355 498H520L612 183H614L701 498H871L698 0H533L435 310H433L337 0H172ZM470 716H636L490 572H366Z" horiz-adv-x="871" unicode="ẃ"/>
			<glyph d="M0 708H184L296 237H299L425 708H603L730 237H733L847 708H1025L823 0H654L514 479H511L371 0H201ZM403 931Q438 931 462 907T487 850Q487 816 462 792T403 768Q369 768 344 792T320 850Q320 883 344 907T403 931ZM621 931Q655 931 679 907T704 850Q704 816 679 792T621 768Q586 768 562 792T538 850Q538 883 562 907T621 931Z" horiz-adv-x="1025" unicode="Ẅ"/>
			<glyph d="M0 498H177L263 183H266L355 498H520L612 183H614L701 498H871L698 0H533L435 310H433L337 0H172ZM325 739Q360 739 384 715T409 658Q409 624 384 600T325 576Q291 576 266 600T242 658Q242 691 266 715T325 739ZM543 739Q577 739 601 715T626 658Q626 624 601 600T543 576Q508 576 484 600T460 658Q460 690 484 714T543 739Z" horiz-adv-x="871" unicode="ẅ"/>
			<glyph d="M-20 708H187L338 446L489 708H689L417 300V0H246V300ZM139 908H305L409 764H285Z" horiz-adv-x="669" unicode="Ỳ"/>
			<glyph d="M-1 498H181L299 178L394 498H568L371 -24Q332 -127 274 -176T123 -240L69 -105Q122 -92 154 -69T207 -10L214 8ZM86 716H252L356 572H232Z" horiz-adv-x="567" unicode="ỳ"/>
			<glyph d="M36 327H290V197H36Z" horiz-adv-x="326" unicode="‐"/>
			<glyph d="M30 313H370V210H30Z" horiz-adv-x="400" unicode="–"/>
			<glyph d="M30 313H570V209H30Z" horiz-adv-x="600" unicode="—"/>
			<glyph d="M30 313H570V209H30Z" horiz-adv-x="600" unicode="―"/>
			<glyph d="M205 708L256 662Q175 612 148 546Q182 538 204 512T227 451Q227 410 197 381T125 352Q84 352 54 382T25 458Q25 540 78 605T205 708Z" horiz-adv-x="305" unicode="‘"/>
			<glyph d="M156 708Q197 708 226 678T256 602Q256 520 203 454T76 352L25 398Q106 448 133 514Q99 522 76 548T54 609Q54 650 84 679T156 708Z" horiz-adv-x="305" unicode="’"/>
			<glyph d="M151 186Q193 186 222 156T251 77Q251 -5 198 -69T71 -170L20 -124Q102 -72 128 -7Q94 0 71 26T49 87Q49 128 79 157T151 186Z" unicode="‚"/>
			<glyph d="M200 708L251 662Q170 612 143 546Q177 538 199 512T222 451Q222 410 192 381T120 352Q79 352 49 382T20 458Q20 540 73 605T200 708ZM460 708L511 662Q430 612 403 546Q437 538 459 512T482 451Q482 410 452 381T380 352Q339 352 309 382T280 458Q280 540 333 605T460 708Z" horiz-adv-x="560" unicode="“"/>
			<glyph d="M156 708Q197 708 226 678T256 602Q256 520 203 454T76 352L25 398Q106 448 133 514Q99 522 76 548T54 609Q54 650 84 679T156 708ZM416 708Q457 708 486 678T516 602Q516 520 463 454T336 352L285 398Q366 448 393 514Q359 522 336 548T314 609Q314 650 344 679T416 708Z" horiz-adv-x="565" unicode="”"/>
			<glyph d="M151 186Q192 186 221 156T251 80Q251 -2 198 -67T71 -170L20 -124Q101 -74 128 -8Q94 0 71 26T49 87Q49 128 79 157T151 186ZM411 186Q452 186 481 156T511 80Q511 -2 458 -67T331 -170L280 -124Q361 -74 388 -8Q354 0 331 26T309 87Q309 128 339 157T411 186Z" horiz-adv-x="560" unicode="„"/>
			<glyph d="M229 708H371V507H565V382H371V-129H229V382H38V507H229Z" horiz-adv-x="603" unicode="†"/>
			<glyph d="M230 708H372V529H562V406H372V174H562V50H372V-129H231V50H42V174H231V406H42V529H230Z" horiz-adv-x="603" unicode="‡"/>
			<glyph d="M250 531Q298 531 338 507T403 442T427 354Q427 306 403 265T338 201T250 177Q202 177 161 201T97 265T73 354Q73 402 97 442T161 507T250 531Z" horiz-adv-x="500" unicode="•"/>
			<glyph d="M167 186Q208 186 237 157T267 88Q267 47 237 18T167 -10Q126 -10 96 18T66 87Q66 127 96 156T167 186ZM500 186Q541 186 570 157T600 88Q600 47 570 18T500 -10Q459 -10 428 18T398 87Q398 128 428 157T500 186ZM833 186Q874 186 903 157T933 88Q933 47 903 18T833 -10Q792 -10 761 18T731 87Q731 128 761 157T833 186Z" horiz-adv-x="1000" unicode="…"/>
			<glyph d="M571 740L660 699L272 -30L183 9ZM214 720Q262 720 303 696T369 631T394 542Q394 493 369 452T303 387T214 363Q165 363 124 387T58 452T34 542Q34 591 58 631T124 696T214 720ZM214 616Q183 616 161 595T140 542Q140 511 161 489T214 468Q245 468 266 489T288 542Q288 573 266 594T214 616ZM632 345Q680 345 721 321T787 256T812 167Q812 118 787 77T721 12T632 -12Q583 -12 542 12T476 77T452 167Q452 216 476 256T542 321T632 345ZM1030 345Q1079 345 1120 321T1185 256T1210 167Q1210 118 1185 77T1120 12T1030 -12Q982 -12 940 12T875 77T851 167Q851 216 875 256T940 321T1030 345ZM632 241Q601 241 579 220T558 167Q558 136 579 114T632 93Q663 93 684 114T706 167Q706 198 684 219T632 241ZM1030 241Q999 241 977 220T956 167Q956 136 977 114T1030 93Q1062 93 1083 114T1104 167Q1104 199 1083 220T1030 241Z" horiz-adv-x="1245" unicode="‰"/>
			<glyph d="M186 486L283 423L168 254L284 85L186 22L25 254Z" horiz-adv-x="318" unicode="‹"/>
			<glyph d="M132 486L293 253L132 22L35 85L150 253L34 423Z" horiz-adv-x="318" unicode="›"/>
			<glyph d="M273 727Q336 727 388 705T472 639T504 533Q504 488 491 456T458 401T402 348Q362 315 350 294T338 235V226H182L181 504H314L312 464Q324 479 329 492T335 522Q335 550 314 568T256 586Q218 586 180 564T108 509L30 628Q77 673 136 700T273 727ZM261 179Q301 179 329 151T358 85Q358 45 330 17T261 -10Q221 -10 192 17T163 84Q163 123 192 151T261 179Z" horiz-adv-x="546" unicode="‽"/>
			<glyph d="M194 740L281 699L-107 -30L-194 9Z" horiz-adv-x="100" unicode="⁄"/>
			<glyph d="M211 890Q301 890 343 827T385 664Q385 563 343 499T211 436Q120 436 77 500T35 664Q35 764 77 827T211 890ZM211 791Q180 791 166 753T153 664Q153 610 166 572T211 535Q242 535 254 572T267 664Q267 717 254 754T211 791Z" horiz-adv-x="420" unicode="⁰"/>
			<glyph d="M204 881H335V622H403L383 528H335V445H229V528H29V621ZM228 756L140 622H229V756Z" horiz-adv-x="420" unicode="⁴"/>
			<glyph d="M84 881H362L352 781H183L180 730Q200 733 220 733Q289 733 333 696T378 593Q378 542 354 506T292 453T209 436Q101 436 40 486L69 584Q130 533 197 533Q229 533 246 547T263 588Q263 616 242 631T186 646Q165 646 132 640T74 628Z" horiz-adv-x="420" unicode="⁵"/>
			<glyph d="M257 890Q283 890 309 884T352 872L329 784Q293 798 256 798Q219 798 191 772T159 700H161Q173 710 196 716T241 723Q299 723 338 685T377 587Q377 517 333 476T219 436Q168 436 127 459T62 528T39 638Q39 749 95 819T257 890ZM209 645Q183 645 165 628T148 584Q148 559 165 541T208 523Q235 523 251 540T268 585Q268 610 250 627T209 645Z" horiz-adv-x="420" unicode="⁶"/>
			<glyph d="M64 881H374V794L210 445H77L248 781H44Z" horiz-adv-x="420" unicode="⁷"/>
			<glyph d="M210 890Q275 890 320 857T365 766Q365 735 350 711T308 675V673Q338 661 356 634T375 572Q375 506 327 471T210 436Q140 436 92 471T45 572Q45 607 63 633T113 673V675Q86 687 70 710T55 764Q55 823 100 856T210 890ZM210 800Q191 800 178 787T166 757Q166 739 178 726T210 714Q229 714 241 726T254 757Q254 775 241 787T210 800ZM210 628Q187 628 172 613T157 577Q157 555 172 541T210 528Q233 528 248 541T263 577Q263 598 247 613T210 628Z" horiz-adv-x="420" unicode="⁸"/>
			<glyph d="M199 890Q250 890 291 867T355 798T379 688Q379 577 322 506T161 436Q135 436 108 441T66 454L89 542Q125 528 162 528Q199 528 227 553T259 626H257Q245 616 222 609T177 603Q119 603 80 641T41 739Q41 809 84 849T199 890ZM210 803Q183 803 166 786T150 741Q150 716 167 698T209 681Q235 681 252 698T270 742Q270 767 253 785T210 803Z" horiz-adv-x="420" unicode="⁹"/>
			<glyph d="M172 658H248V535H374V461H249V338H173V461H47V535H172Z" horiz-adv-x="421" unicode="⁺"/>
			<glyph d="M54 534H366V461H54Z" horiz-adv-x="420" unicode="⁻"/>
			<glyph d="M55 602H367V530H55ZM55 494H367V421H55Z" horiz-adv-x="422" unicode="⁼"/>
			<glyph d="M177 854L252 800Q202 732 176 652T150 491Q150 409 176 329T252 180L177 127Q118 209 86 302T55 491Q55 585 86 678T177 854Z" horiz-adv-x="306" unicode="⁽"/>
			<glyph d="M120 858Q179 776 210 682T242 494Q242 400 210 306T120 131L45 184Q95 253 121 332T147 494Q147 576 121 656T45 804Z" horiz-adv-x="301" unicode="⁾"/>
			<glyph d="M211 300Q301 300 343 237T385 74Q385 -27 343 -90T211 -154Q120 -154 77 -90T35 74Q35 174 77 237T211 300ZM211 201Q180 201 166 163T153 74Q153 20 166 -17T211 -55Q242 -55 254 -17T267 74Q267 127 254 164T211 201Z" horiz-adv-x="420" unicode="₀"/>
			<glyph d="M192 291H298V-145H181V161L94 93L54 189Z" horiz-adv-x="420" unicode="₁"/>
			<glyph d="M197 300Q262 300 305 267T349 173Q349 129 328 96T273 32L186 -45H369L349 -145H30V-63L200 101Q229 130 229 159Q229 177 214 188T175 199Q150 199 122 184T74 148L31 234Q99 300 197 300Z" horiz-adv-x="420" unicode="₂"/>
			<glyph d="M194 300Q258 300 302 269T347 179Q347 146 331 121T290 83Q322 72 339 45T357 -17Q357 -62 332 -93T270 -139T191 -154Q101 -154 30 -115L59 -19Q80 -34 114 -45T180 -57Q242 -57 242 -11Q242 36 164 36H131V120H167Q196 120 214 131T232 167Q232 184 218 194T180 205Q133 205 85 168L44 252Q106 300 194 300Z" horiz-adv-x="420" unicode="₃"/>
			<glyph d="M204 291H335V32H403L383 -62H335V-145H229V-62H29V31ZM228 166L140 32H229V166Z" horiz-adv-x="420" unicode="₄"/>
			<glyph d="M84 291H362L352 191H183L180 140Q200 143 220 143Q289 143 333 106T378 3Q378 -48 354 -83T292 -136T209 -154Q101 -154 40 -104L69 -6Q130 -57 197 -57Q229 -57 246 -42T263 -2Q263 26 242 41T186 56Q165 56 132 50T74 38Z" horiz-adv-x="420" unicode="₅"/>
			<glyph d="M257 300Q283 300 309 294T352 282L329 194Q293 208 256 208Q219 208 191 182T159 110H161Q173 120 196 126T241 133Q299 133 338 95T377 -3Q377 -73 333 -113T219 -154Q168 -154 127 -131T62 -62T39 48Q39 159 95 229T257 300ZM209 55Q183 55 165 38T148 -6Q148 -31 165 -49T208 -67Q235 -67 251 -50T268 -5Q268 20 250 37T209 55Z" horiz-adv-x="420" unicode="₆"/>
			<glyph d="M64 291H374V204L210 -145H77L248 191H44Z" horiz-adv-x="420" unicode="₇"/>
			<glyph d="M210 300Q275 300 320 267T365 176Q365 145 350 121T308 85V83Q338 71 356 44T375 -18Q375 -84 327 -119T210 -154Q140 -154 92 -119T45 -18Q45 17 63 43T113 83V85Q86 97 70 120T55 174Q55 233 100 266T210 300ZM210 210Q191 210 178 197T166 167Q166 149 178 136T210 124Q229 124 241 136T254 167Q254 185 241 197T210 210ZM210 38Q187 38 172 23T157 -13Q157 -35 172 -48T210 -62Q233 -62 248 -48T263 -13Q263 8 247 23T210 38Z" horiz-adv-x="420" unicode="₈"/>
			<glyph d="M199 300Q250 300 291 277T355 208T379 98Q379 -13 322 -83T161 -154Q135 -154 108 -148T66 -136L89 -48Q125 -62 162 -62Q199 -62 227 -36T259 36H257Q245 26 222 19T177 13Q119 13 80 51T41 149Q41 219 84 259T199 300ZM210 213Q183 213 166 196T150 151Q150 126 167 108T209 91Q235 91 252 108T270 152Q270 177 253 195T210 213Z" horiz-adv-x="420" unicode="₉"/>
			<glyph d="M172 384H248V261H374V187H249V64H173V187H47V261H172Z" horiz-adv-x="421" unicode="₊"/>
			<glyph d="M54 261H366V188H54Z" horiz-adv-x="421" unicode="₋"/>
			<glyph d="M55 314H367V242H55ZM55 206H367V133H55Z" horiz-adv-x="422" unicode="₌"/>
			<glyph d="M177 584L252 530Q202 462 176 382T150 221Q150 139 176 59T252 -90L177 -143Q118 -61 86 32T55 221Q55 315 86 408T177 584Z" horiz-adv-x="306" unicode="₍"/>
			<glyph d="M120 584Q179 502 210 408T242 220Q242 126 210 32T120 -143L45 -90Q95 -21 121 58T147 220Q147 302 121 382T45 530Z" horiz-adv-x="301" unicode="₎"/>
			<glyph d="M450 727Q494 727 539 718T613 697L564 571Q543 582 510 588T445 594Q392 594 346 567T283 494H548L513 390H255Q253 378 253 353Q253 330 254 319H495L461 216H275Q289 173 335 144T440 116Q514 116 567 147L604 20Q574 3 527 -8T428 -19Q302 -19 221 45T113 216H21L55 319H100Q99 331 99 354Q99 372 102 390H24L60 494H117Q149 603 238 665T450 727Z" horiz-adv-x="646" unicode="€"/>
			<glyph d="M622 740L712 695L295 -34L206 10ZM238 724Q273 724 307 714T365 690L330 587Q315 597 289 606T240 615Q207 615 186 593T165 534Q165 502 189 478T249 455Q298 455 333 482L369 385Q343 366 309 356T238 346Q182 346 137 369T65 434T39 534Q39 591 65 634T137 700T238 724ZM706 366Q760 366 805 343T876 277T903 179Q903 123 876 79T805 12T706 -12Q652 -12 607 12T535 79T509 179Q509 235 535 277T607 343T706 366ZM706 258Q670 258 650 234T630 179Q630 146 650 121T706 97Q742 97 762 121T782 179Q782 211 761 234T706 258Z" horiz-adv-x="942" unicode="℅"/>
			<glyph d="M302 721Q375 721 418 678T462 566Q462 489 415 417T266 263V162Q266 129 282 114T323 99Q359 99 411 136H413L465 56Q422 20 378 3T284 -14Q202 -14 156 28T111 137V162L57 117H55L1 201L110 287V520Q110 576 134 622T203 694T302 721ZM301 619Q286 619 276 599T266 550V393Q336 464 336 557Q336 583 326 601T301 619Z" horiz-adv-x="500" unicode="ℓ"/>
			<glyph d="M401 730Q504 730 591 679T729 542T780 353Q780 250 729 164T591 28T401 -22Q298 -22 210 28T71 164T20 353Q20 456 71 542T210 679T401 730ZM401 674Q314 674 240 631T123 514T80 353Q80 266 123 193T239 77T399 34Q486 34 559 77T676 193T720 353Q720 440 677 514T561 631T401 674ZM260 569H438Q518 569 566 532T615 421Q615 347 565 308T438 270H379V125H260ZM379 473V366H434Q465 366 481 379T498 420Q498 446 481 459T436 473Z" horiz-adv-x="800" unicode="℗"/>
			<glyph d="M45 708H391L381 613H268V296H158V613H35ZM461 708H611L706 448L798 708H948V296H842V555H840L743 296H664L568 555H566V296H461Z" horiz-adv-x="1000" unicode="™"/>
			<glyph d="M398 715Q501 715 580 678T702 574T746 413Q746 326 706 253T586 138H772V0H441V158Q506 199 532 252T558 391Q558 482 512 529T398 577Q328 577 283 529T238 389Q238 304 263 251T352 158V0H24V138H206Q130 176 90 251T50 412Q50 506 93 574T215 678T398 715Z" horiz-adv-x="792" unicode="Ω"/>
			<glyph d="M302 535Q378 535 436 500T528 402T561 259H157V78Q216 19 302 19Q365 19 411 47T495 139L530 118Q484 46 432 14T302 -17Q225 -17 166 19T76 119T44 259Q44 336 76 399T166 498T302 535ZM301 500Q217 500 157 440V295H448V440Q385 500 301 500Z" horiz-adv-x="500" unicode="℮"/>
			<glyph d="M614 740L701 699L313 -30L226 9ZM191 708H297V272H180V578L93 510L53 606ZM718 445Q782 445 826 414T871 324Q871 291 855 266T814 228Q846 217 863 190T881 128Q881 83 856 52T794 6T715 -9Q625 -9 554 30L583 126Q604 111 638 99T704 88Q766 88 766 134Q766 181 688 181H655V265H691Q720 265 738 276T756 312Q756 329 742 339T704 350Q657 350 609 313L568 397Q630 445 718 445Z" horiz-adv-x="940" unicode="⅓"/>
			<glyph d="M614 740L701 699L313 -30L226 9ZM197 717Q262 717 305 684T349 590Q349 546 328 513T273 449L186 372H369L349 272H30V354L200 518Q229 547 229 576Q229 594 214 605T175 616Q150 616 122 601T74 565L31 651Q99 717 197 717ZM718 445Q782 445 826 414T871 324Q871 291 855 266T814 228Q846 217 863 190T881 128Q881 83 856 52T794 6T715 -9Q625 -9 554 30L583 126Q604 111 638 99T704 88Q766 88 766 134Q766 181 688 181H655V265H691Q720 265 738 276T756 312Q756 329 742 339T704 350Q657 350 609 313L568 397Q630 445 718 445Z" horiz-adv-x="932" unicode="⅔"/>
			<glyph d="M614 740L701 699L313 -30L226 9ZM191 708H297V272H180V578L93 510L53 606ZM727 445Q792 445 837 412T882 321Q882 290 867 266T825 230V228Q855 216 873 189T892 127Q892 61 844 26T727 -9Q657 -9 609 26T562 127Q562 162 580 188T630 228V230Q603 242 587 265T572 319Q572 378 617 411T727 445ZM727 355Q708 355 695 342T683 312Q683 294 695 281T727 269Q746 269 758 281T771 312Q771 330 758 342T727 355ZM727 183Q704 183 689 168T674 132Q674 110 689 96T727 83Q750 83 765 96T780 132Q780 153 764 168T727 183Z" horiz-adv-x="943" unicode="⅛"/>
			<glyph d="M574 740L661 699L273 -30L186 9ZM194 717Q258 717 302 686T347 596Q347 563 331 538T290 500Q322 489 339 462T357 400Q357 355 332 324T270 278T191 263Q101 263 30 302L59 398Q80 383 114 371T180 360Q242 360 242 406Q242 453 164 453H131V537H167Q196 537 214 548T232 584Q232 601 218 611T180 622Q133 622 85 585L44 669Q106 717 194 717ZM660 445Q725 445 770 412T815 321Q815 290 800 266T758 230V228Q788 216 806 189T825 127Q825 61 777 26T660 -9Q590 -9 542 26T495 127Q495 162 513 188T563 228V230Q536 242 520 265T505 319Q505 378 550 411T660 445ZM660 355Q641 355 628 342T616 312Q616 294 628 281T660 269Q679 269 691 281T704 312Q704 330 691 342T660 355ZM660 183Q637 183 622 168T607 132Q607 110 622 96T660 83Q683 83 698 96T713 132Q713 153 697 168T660 183Z" horiz-adv-x="866" unicode="⅜"/>
			<glyph d="M574 740L661 699L273 -30L186 9ZM64 708H342L332 608H163L160 557Q180 560 200 560Q269 560 313 523T358 420Q358 369 334 333T272 280T189 263Q81 263 20 313L49 411Q110 360 177 360Q209 360 226 374T243 415Q243 443 222 458T166 473Q145 473 112 467T54 455ZM660 445Q725 445 770 412T815 321Q815 290 800 266T758 230V228Q788 216 806 189T825 127Q825 61 777 26T660 -9Q590 -9 542 26T495 127Q495 162 513 188T563 228V230Q536 242 520 265T505 319Q505 378 550 411T660 445ZM660 355Q641 355 628 342T616 312Q616 294 628 281T660 269Q679 269 691 281T704 312Q704 330 691 342T660 355ZM660 183Q637 183 622 168T607 132Q607 110 622 96T660 83Q683 83 698 96T713 132Q713 153 697 168T660 183Z" horiz-adv-x="866" unicode="⅝"/>
			<glyph d="M544 740L631 699L243 -30L156 9ZM64 708H374V621L210 272H77L248 608H44ZM650 445Q715 445 760 412T805 321Q805 290 790 266T748 230V228Q778 216 796 189T815 127Q815 61 767 26T650 -9Q580 -9 532 26T485 127Q485 162 503 188T553 228V230Q526 242 510 265T495 319Q495 378 540 411T650 445ZM650 355Q631 355 618 342T606 312Q606 294 618 281T650 269Q669 269 681 281T694 312Q694 330 681 342T650 355ZM650 183Q627 183 612 168T597 132Q597 110 612 96T650 83Q673 83 688 96T703 132Q703 153 687 168T650 183Z" horiz-adv-x="866" unicode="⅞"/>
			<glyph d="M299 721Q404 721 469 668T561 533T589 359Q589 207 529 97T316 -13Q244 -13 188 18T100 104T69 229Q69 295 98 347T181 428T309 457Q374 457 427 428L428 450Q428 480 413 510T368 561T298 582Q222 582 161 527L84 628Q177 721 299 721ZM328 328Q283 328 259 299T235 222Q235 177 258 148T319 120Q368 120 394 165T420 292Q373 328 328 328Z" horiz-adv-x="666" unicode="∂"/>
			<glyph d="M240 708H468L690 108V0H16V109ZM353 587Q348 557 331 508L202 141H506L376 507Q375 511 365 538T353 587Z" horiz-adv-x="744" unicode="∆"/>
			<glyph d="M59 786H695V-214H543V653H210V-214H59Z" horiz-adv-x="753" unicode="∏"/>
			<glyph d="M38 786H632V653H230L486 293L213 -81H644V-214H26V-103L318 292L38 675Z" horiz-adv-x="666" unicode="∑"/>
			<glyph d="M68 365H598V242H68Z" horiz-adv-x="666" unicode="−"/>
			<glyph d="M194 740L281 699L-107 -30L-194 9Z" horiz-adv-x="100" unicode="∕"/>
			<glyph d="M151 389Q192 389 221 360T251 291Q251 250 221 221T151 193Q109 193 79 221T49 290Q49 331 79 360T151 389Z" unicode="∙"/>
			<glyph d="M434 786H579L365 -214H239L94 86L43 62L-11 176L164 255L276 16Z" horiz-adv-x="569" unicode="√"/>
			<glyph d="M610 453Q665 453 706 428T770 361T792 266Q792 213 770 169T706 100T609 75Q553 75 507 102T419 178Q372 128 330 102T231 76Q175 76 133 100T68 168T45 265Q45 317 67 360T130 427T227 452Q286 452 330 423T419 343Q462 394 506 423T610 453ZM607 334Q578 334 550 313T493 262Q555 194 610 194Q639 194 656 213T674 263Q674 294 656 314T607 334ZM227 333Q199 333 181 312T163 263Q163 232 181 213T230 195Q281 195 344 262Q273 333 227 333Z" horiz-adv-x="837" unicode="∞"/>
			<glyph d="M396 785Q439 785 479 762T519 696Q519 668 500 648T453 629Q432 629 421 639T400 668Q395 679 390 684T380 689Q370 689 365 659T361 553V59Q361 -22 341 -84T286 -180T203 -214Q157 -214 118 -191T79 -122Q79 -98 99 -78T146 -58Q166 -58 176 -68T195 -95Q201 -106 205 -111T216 -116Q224 -116 230 -84T236 11V507Q236 595 243 648T285 743T396 785Z" horiz-adv-x="633" unicode="∫"/>
			<glyph d="M188 468Q215 468 243 460T313 438Q352 424 379 416T433 409Q475 409 483 468H580Q572 377 529 326T419 276Q390 276 358 285T280 311Q239 326 215 333T173 340Q153 340 140 324T122 285H26Q33 363 72 415T188 468ZM182 257Q210 257 239 249T308 226Q350 211 378 203T433 196Q470 196 482 247H579Q570 169 533 116T420 63Q391 63 359 72T278 99Q239 114 215 121T172 128Q152 128 138 111T120 66H24Q31 145 70 201T182 257Z" horiz-adv-x="666" unicode="≈"/>
			<glyph d="M402 593L517 538L470 448H569V321H405L362 237H569V110H296L222 -36L107 20L154 110H52V237H219L262 321H52V448H327Z" horiz-adv-x="666" unicode="≠"/>
			<glyph d="M587 685V549L281 418L587 291V154L79 368V471ZM79 141H587V18H79Z" horiz-adv-x="666" unicode="≤"/>
			<glyph d="M79 685L587 471V368L79 154V291L385 418L79 549ZM79 141H587V18H79Z" horiz-adv-x="666" unicode="≥"/>
			<glyph d="M243 747H362L546 356L362 -35H242L61 356ZM302 597L201 356L302 115L405 356Z" horiz-adv-x="606" unicode="◊"/>
			<glyph d="M0 718H512V0H0ZM50 667V50H462V667ZM259 609Q313 609 348 573T383 478Q383 444 370 418T320 358Q296 336 286 322T273 290T271 234H225L223 251Q223 301 234 327T282 391Q313 420 322 437T332 474Q332 510 309 534T256 559Q223 559 201 536T174 464L124 472Q131 541 167 575T259 609ZM222 184H278V117H222Z" horiz-adv-x="512" unicode=""/>
			<glyph d="M319 775Q372 775 418 765L407 635Q369 642 342 642Q269 642 269 548V498H481V546Q481 649 530 712T695 775Q748 775 794 765L783 635Q745 642 718 642Q645 642 645 548V498H776L756 375H645V0H481V375H269V0H105V375H4L24 498H105V546Q105 649 154 712T319 775Z" horiz-adv-x="764" unicode="ﬀ"/>
			<glyph d="M299 775Q352 775 398 765L387 635Q354 642 332 642Q269 642 269 548V498H390L370 375H269V0H105V375H4L24 498H105V546Q105 649 149 712T299 775ZM516 747Q555 747 582 720T610 657Q610 619 583 593T516 567Q477 567 449 593T422 657Q422 693 449 720T516 747ZM434 498H598V0H434Z" horiz-adv-x="664" unicode="ﬁ"/>
			<glyph d="M600 776V234Q600 185 614 156T664 101L567 -21Q504 13 469 68T434 214V630Q406 642 362 642Q311 642 290 610T269 528V498H390L370 375H269V0H105V375H4L24 498H105V526Q105 638 161 706T349 775Q398 775 462 759Z" horiz-adv-x="672" unicode="ﬂ"/>
			<glyph d="M319 775Q372 775 418 765L407 635Q369 642 342 642Q269 642 269 548V498H480V546Q480 649 524 712T674 775Q727 775 773 765L762 635Q729 642 707 642Q644 642 644 548V498H765L745 375H644V0H480V375H269V0H105V375H4L24 498H105V546Q105 649 154 712T319 775ZM891 747Q930 747 957 720T985 657Q985 619 958 593T891 567Q852 567 824 593T797 657Q797 693 824 720T891 747ZM809 498H973V0H809Z" horiz-adv-x="999" unicode="ﬃ"/>
			<glyph d="M977 776V234Q977 185 991 156T1041 101L944 -21Q881 13 846 68T811 214V630Q783 642 739 642Q688 642 667 610T646 528V498H767L747 375H646V0H482V375H269V0H105V375H4L24 498H105V546Q105 649 154 712T319 775Q372 775 418 765L407 635Q369 642 342 642Q269 642 269 548V498H482V526Q482 638 538 706T726 775Q775 775 839 759Z" horiz-adv-x="1049" unicode="ﬄ"/>
		</font>
</defs>
</svg>
